<svg xmlns="http://www.w3.org/2000/svg"
shape-rendering="geometricPrecision"
width="4000" height="4000" viewBox="0 0 1024 1024">
  <metadata>null</metadata>

<path d="
M 59.422 678.74
C 66.362 679.214 73.695 677.81 80.573 678.854
C 82.055 680.435 83.165 682.464 84.418 684.231
C 87.518 688.602 90.579 693.024 93.76 697.337
C 101.883 708.352 109.963 719.455 117.789 730.684
C 121.041 735.35 124.503 739.871 127.694 744.578
C 128.647 745.983 129.63 747.364 130.592 748.763
C 130.929 749.254 131.304 750.142 131.854 750.416
C 132.217 745.208 131.764 739.743 131.766 734.504
C 131.771 722.673 131.751 710.842 131.719 699.011
C 131.707 694.343 131.68 689.675 131.734 685.006
C 131.757 683.07 131.428 680.794 131.819 678.913
C 138.837 678.248 145.991 678.831 153.029 678.792
C 153.236 683.306 152.939 687.962 152.932 692.5
C 152.917 702.166 152.918 711.832 152.882 721.497
C 152.804 742.961 153.124 764.446 152.855 785.903
C 148.233 786.068 143.565 785.992 138.936 786.035
C 137.202 786.05 134.518 786.58 132.953 785.795
C 128.849 780.408 125.075 774.707 121.13 769.196
C 111.933 756.346 102.578 743.612 93.222 730.88
C 90.146 726.693 87.254 722.335 84.072 718.231
C 83.299 717.233 82.451 716.214 81.772 715.149
C 81.109 714.11 81.544 713.993 80.968 714.268
C 81.606 725.183 81.077 736.405 80.929 747.345
C 80.756 760.201 80.904 773.069 80.857 785.925
C 79.273 786.564 76.724 786.086 75.014 786.099
C 70.007 786.137 64.788 785.61 59.831 785.991
C 59.156 782.924 59.728 779.16 59.722 776.012
C 59.708 769.011 59.682 762.009 59.69 755.008
C 59.71 739.174 59.67 723.341 59.674 707.508
C 59.676 697.96 60.124 688.261 59.422 678.74 Z"
opacity="1" fill="rgb(245,129,39)" fill-rule="evenodd" />
<path d="
M 189.783 678.801
C 209.324 679.177 228.95 678.75 248.503 678.712
C 253.336 678.702 258.17 678.691 263.003 678.687
C 264.081 678.686 267.384 678.098 268.099 678.813
C 268.518 683.019 268.156 687.682 268.017 691.922
C 267.949 694.013 267.584 696.62 268.152 698.667
C 267.38 698.152 264.987 698.561 264.01 698.564
C 260.344 698.576 256.679 698.587 253.013 698.594
C 239.137 698.617 224.944 697.661 211.105 698.687
C 211.443 706.631 211.262 714.758 211.14 722.71
C 212.431 723.072 214.323 722.732 215.678 722.709
C 218.787 722.657 221.897 722.666 225.007 722.693
C 233.34 722.766 241.674 722.772 250.008 722.772
C 254.286 722.772 258.784 722.432 263.035 722.894
C 263.454 729.026 263.293 735.818 262.841 741.968
C 253.122 742.066 243.391 742.07 233.667 741.974
C 226.22 741.901 218.681 741.617 211.255 742.232
C 211.437 747.805 211.238 753.427 211.225 759.005
C 211.219 761.179 210.61 764.411 211.358 766.448
C 215.642 765.914 220.192 766.314 224.505 766.343
C 231.671 766.392 238.838 766.327 246.004 766.352
C 251.474 766.371 256.948 766.317 262.417 766.403
C 264.638 766.438 267.168 766.155 269.345 766.566
C 268.638 772.982 269.733 779.609 269.185 786.037
C 267.013 785.322 263.786 785.902 261.508 785.916
C 255.982 785.951 250.462 785.927 244.937 785.928
C 226.718 785.932 208.324 785.278 190.124 786.082
C 189.73 785.382 189.892 784.164 189.887 783.369
C 189.875 781.581 189.892 779.793 189.883 778.005
C 189.847 770.837 189.848 763.669 189.833 756.501
C 189.796 738.668 189.871 720.834 189.823 703.001
C 189.802 694.992 190.296 686.781 189.783 678.801 Z"
opacity="1" fill="rgb(246,129,38)" fill-rule="evenodd" />
<path d="
M 235.786 541.751
C 244.344 527.841 254.189 514.531 263.5 501.095
C 276.093 482.922 288.455 464.584 300.954 446.343
C 307.134 437.324 313.367 428.349 319.59 419.36
C 321.247 416.966 322.875 414.549 324.568 412.182
C 325.624 410.707 327.082 409.027 327.552 407.254
C 314.093 410.238 300.835 414.328 287.394 417.459
C 284.078 418.232 280.786 419.156 277.431 419.747
C 276.549 419.902 274.919 420.76 274.195 420.137
C 274.804 417.747 279.258 415.463 281.222 414.112
C 287.731 409.635 294.086 404.938 300.647 400.531
C 318.52 388.525 335.762 375.626 353.493 363.42
C 358.885 359.709 364.201 355.888 369.586 352.166
C 371.731 350.684 375.494 349.26 376.933 347.043
C 373.791 344.489 369.679 342.695 366.128 340.773
C 359.959 337.435 353.956 333.786 347.851 330.346
C 347.665 329.812 348.766 329.634 349.198 329.492
C 350.815 328.961 352.391 328.348 353.992 327.776
C 360.964 325.284 367.816 322.458 374.805 320.017
C 382.445 317.349 389.959 314.23 397.499 311.287
C 409.767 306.499 422.218 302.182 434.449 297.286
C 440.69 294.788 447.007 292.41 453.307 290.07
C 456.26 288.972 459.514 288.256 462.334 286.849
C 464.515 285.762 465.421 281.59 466.401 279.511
C 468.139 275.824 469.975 272.173 471.647 268.456
C 473.208 264.988 474.425 261.533 477.377 258.966
C 501.633 237.879 525.543 216.338 550.134 195.637
C 558.844 188.305 567.223 180.587 575.936 173.252
C 578.935 170.726 581.906 168.055 585.169 165.88
C 584.319 180.382 584.604 194.972 583.549 209.476
C 582.272 227.023 580.8 244.767 580.488 262.359
C 583.213 261.467 585.966 259.138 588.406 257.625
C 593.75 254.309 599.064 250.935 604.449 247.686
C 623.883 235.962 642.885 223.517 662.167 211.545
C 667.493 208.238 672.769 204.851 678.107 201.561
C 680.668 199.982 683.617 197.597 686.54 196.819
C 686.691 197.559 686.156 198.388 685.941 199.076
C 685.381 200.866 684.981 202.731 684.465 204.539
C 682.459 211.57 680.138 218.512 678.115 225.535
C 671.892 247.144 664.768 268.471 658.091 289.94
C 656.136 296.225 654.086 302.477 652.006 308.721
C 651.346 310.702 650.818 312.725 650.217 314.723
C 649.886 315.824 649.296 316.885 649.325 318.047
C 650.957 320.87 653.447 323.299 655.453 325.864
C 659.463 330.994 663.375 336.209 667.258 341.437
C 669.158 343.995 672.577 346.961 673.593 349.99
C 674.882 353.831 675.03 358.479 675.634 362.486
C 676.635 369.138 677.886 375.765 679.136 382.374
C 679.649 385.09 680.227 387.794 680.732 390.512
C 680.966 391.77 681.042 393.254 681.958 394.232
C 683.962 396.37 686.972 397.883 689.45 399.387
C 692.522 401.252 695.476 403.285 698.444 405.308
C 712.373 414.806 726.609 423.87 740.693 433.137
C 745.724 436.448 750.861 439.636 755.776 443.117
C 757.308 444.201 760.677 445.748 761.508 447.425
C 756.087 453.108 749.58 458.197 743.494 463.156
C 734.743 470.285 726.469 477.916 717.347 484.61
C 713.506 487.429 709.809 490.464 705.874 493.153
C 704.571 494.044 702.986 495.896 701.447 496.271
C 697.862 497.147 693.196 496.302 689.507 496.285
C 681.007 496.245 672.506 496.24 664.006 496.238
C 651.547 496.235 638.956 496.615 626.512 496.004
C 621.191 495.743 615.834 495.846 610.502 495.822
C 607.54 495.808 604.416 495.469 601.473 495.834
C 597.247 496.359 592.696 498.471 588.645 499.799
C 581.894 502.011 575.039 503.893 568.315 506.183
C 564.211 507.581 560.107 509.004 555.944 510.219
C 553.565 510.914 550.548 511.396 548.387 512.61
C 547.082 513.343 546.28 514.901 545.38 516.042
C 543.402 518.551 541.455 521.123 539.356 523.532
C 530.741 533.415 522.426 543.567 513.816 553.452
C 513.429 554.27 513.645 555.437 513.643 556.35
C 513.638 558.629 513.6 560.908 513.585 563.186
C 513.536 570.794 513.483 578.398 513.23 586.003
C 513.143 588.631 513.103 591.246 513.129 593.876
C 513.136 594.615 513.337 596.01 512.723 596.563
C 510.828 594.849 510.584 590.576 509.886 588.227
C 508.77 584.467 507.53 580.739 506.578 576.932
C 505.692 573.394 505.207 569.636 503.947 566.207
C 502.503 566.69 501.185 568.915 500.159 570.015
C 497.078 573.322 494.067 576.667 491.162 580.13
C 480.844 592.428 470.281 604.54 459.894 616.786
C 456.431 620.869 453.014 624.988 449.515 629.043
C 448.807 629.865 446.735 632.965 445.637 632.8
C 444.617 630.071 444.913 626.447 444.655 623.556
C 443.957 615.723 443.374 607.867 442.64 600.031
C 440.332 575.381 439.005 550.615 436.458 526.008
C 435.597 517.693 435.29 509.318 434.449 501.005
C 434.236 498.907 434.557 496.456 434.065 494.428
C 416.039 498.117 398.296 503.352 380.347 507.429
C 352.045 513.859 323.755 520.549 295.609 527.629
C 281.609 531.15 267.517 534.31 253.529 537.873
C 249.602 538.873 245.631 539.709 241.704 540.707
C 240.015 541.136 237.472 542.197 235.765 542.011
C 235.772 541.924 235.779 541.838 235.786 541.751 Z
M 263.903 522.049
C 263.802 522.27 263.701 522.491 263.601 522.712
C 265.103 522.637 266.71 521.758 268.187 521.384
C 271.665 520.504 275.194 519.91 278.654 518.933
C 287.345 516.478 296.291 514.36 305.107 512.392
C 335.907 505.517 366.568 497.885 397.23 490.431
C 407.271 487.99 417.297 485.497 427.336 483.05
C 433.234 481.613 439.219 479.979 445.241 479.171
C 444.978 486.817 446.491 494.896 447.086 502.533
C 448.736 523.701 450.452 544.864 452.08 566.033
C 452.73 574.474 453.618 582.901 454.241 591.341
C 454.426 593.84 454.598 596.335 454.781 598.834
C 454.867 600.008 454.826 601.474 455.422 602.516
C 458.873 599.906 461.415 595.382 464.267 592.114
C 470.97 584.432 477.581 576.633 484.137 568.825
C 487.592 564.71 491.083 560.567 494.687 556.583
C 496.441 554.643 499.171 552.626 500.39 550.323
C 500.748 548.397 499.479 545.358 499.14 543.397
C 498.442 539.355 497.814 535.291 497.21 531.235
C 496.88 529.021 496.263 526.72 496.323 524.469
C 496.359 523.136 497.283 522.051 497.965 520.968
C 499.051 519.244 499.987 517.42 500.993 515.649
C 505.172 508.297 508.762 500.281 513.61 493.35
C 497.595 482.421 481.652 471.33 465.875 460.052
C 461.249 456.746 456.49 453.589 451.768 450.421
C 450.126 449.319 447.221 448.185 446.03 446.687
C 450.439 439.944 456.337 434.002 461.232 427.59
C 462.541 425.875 464.189 424.253 465.318 422.427
C 464.932 421.896 463.855 422.329 463.274 422.475
C 461.161 423.006 459.093 423.713 457.027 424.408
C 450.535 426.592 444.332 429.615 437.837 431.771
C 435.843 432.434 433.143 434.479 431.018 434.165
C 431.628 432.22 433.032 430.493 434.034 428.729
C 436.783 423.885 439.984 419.284 443.053 414.639
C 451.056 402.526 458.907 390.231 467.468 378.502
C 470.863 373.85 474.148 369.118 477.595 364.503
C 479.199 362.355 481.661 359.828 482.732 357.388
C 482.964 355.952 481.648 353.72 481.114 352.379
C 479.669 348.756 478.715 344.929 477.384 341.263
C 473.906 331.674 470.993 321.822 467.774 312.137
C 466.437 308.112 465.562 303.467 463.616 299.699
C 459.575 300.678 455.681 302.678 451.787 304.13
C 442.598 307.556 433.455 311.11 424.293 314.611
C 414.126 318.496 403.913 322.264 393.74 326.136
C 388.494 328.133 382.769 329.663 377.796 332.267
C 380.741 335.11 384.51 337.118 388.037 339.178
C 392.038 341.514 395.931 343.995 399.893 346.383
C 398.895 347.639 396.806 348.478 395.498 349.433
C 391.895 352.062 388.173 354.529 384.514 357.077
C 373.576 364.691 362.783 372.602 351.684 379.982
C 347.603 382.695 343.457 385.31 339.367 388.009
C 337.205 389.436 334.518 390.838 332.749 392.736
C 332.857 393.266 333.711 392.856 334.087 392.74
C 335.341 392.353 336.617 392.009 337.875 391.62
C 343.34 389.93 348.776 388.056 354.191 386.21
C 360.983 383.895 368.007 382.061 374.895 380.057
C 380.357 378.468 386.193 375.458 391.958 375.354
C 394.36 375.311 396.679 376.459 398.914 377.222
C 400.477 377.756 402.163 377.997 403.669 378.676
C 404.221 379.542 404.776 382.715 404.593 383.742
C 397.298 386.24 389.841 388.281 382.488 390.597
C 376.634 392.441 370.812 394.568 364.895 396.19
C 360.754 397.326 356.62 398.515 352.507 399.754
C 351.042 400.195 348.661 400.425 347.47 401.431
C 346.526 402.228 345.923 403.717 345.253 404.744
C 343.498 407.435 341.682 410.144 339.758 412.716
C 332.251 422.752 325.266 433.253 318.196 443.6
C 306.3 461.009 294.323 478.399 282.198 495.647
C 276.079 504.35 269.471 512.992 263.903 522.049 Z
M 461.83 409.228
C 464.915 409.045 468.691 407.152 471.6 406.088
C 477.937 403.773 484.263 401.363 490.668 399.243
C 493.102 398.438 495.465 397.378 497.949 396.732
C 498.626 396.556 499.785 395.915 500.347 396.416
C 498.97 398.713 496.805 400.717 495.19 402.874
C 492.516 406.446 489.8 410.012 486.943 413.44
C 485.885 414.71 484.806 416.054 483.965 417.478
C 483.623 418.058 483.012 418.801 483.36 419.436
C 485.638 418.981 487.649 417.319 489.652 416.202
C 493.236 414.203 496.879 412.311 500.481 410.345
C 513.223 403.394 526.172 396.845 539.049 390.156
C 542.977 388.115 546.874 386.012 550.802 383.97
C 552.433 383.122 554.173 381.558 556.016 381.314
C 558.19 382.319 560.229 383.942 562.265 385.218
C 566.156 387.654 570.177 389.925 574.142 392.236
C 581.85 396.73 590.365 400.641 597.35 406.239
C 600.903 409.088 603.967 412.6 607.176 415.823
C 610.237 418.897 613.556 421.851 616.394 425.13
C 617.332 426.213 618.977 427.439 619.467 428.805
C 617.678 428.245 616.101 427.245 614.446 426.399
C 610.966 424.618 607.358 423.049 603.825 421.373
C 593.456 416.456 583.19 411.692 573.102 406.186
C 568.96 403.925 564.753 401.67 560.714 399.229
C 559.274 398.357 557.216 396.296 555.544 396.045
C 553.825 395.787 551.199 397.929 549.732 398.682
C 545.145 401.036 540.643 403.546 536.037 405.866
C 519.949 413.969 504.164 422.721 488.23 431.126
C 484.046 433.333 479.809 435.472 475.685 437.789
C 474.124 438.666 471.687 439.536 470.773 441.161
C 472.602 441.813 475.032 441.713 476.968 441.874
C 480.378 442.157 483.775 442.56 487.19 442.796
C 497.54 443.511 507.843 444.955 518.19 445.805
C 544.768 447.986 571.322 450.729 597.856 453.421
C 607.496 454.399 617.16 455.175 626.79 456.246
C 630.83 456.695 634.949 456.718 638.946 457.483
C 645.576 458.752 652.139 460.638 658.701 462.22
C 669.659 464.862 680.745 467.118 691.761 469.511
C 696.371 470.513 700.984 471.547 705.613 472.455
C 707.294 472.785 710.023 473.918 711.701 473.42
C 718.703 467.804 725.375 461.68 732.128 455.77
C 733.863 454.252 735.617 452.752 737.395 451.285
C 738.219 450.605 739.45 449.962 739.992 449.019
C 740.373 447.875 737.314 446.445 736.472 445.875
C 732.171 442.962 727.904 439.908 723.495 437.165
C 710.776 429.254 698.515 420.553 685.977 412.358
C 682.398 410.019 678.951 407.482 675.376 405.137
C 673.872 404.151 671.508 402.981 670.565 401.407
C 669.948 400.375 669.859 398.766 669.618 397.597
C 669.105 395.11 668.588 392.622 668.066 390.137
C 666.343 381.941 664.869 373.695 663.504 365.435
C 662.965 362.172 663.117 358.325 662.138 355.19
C 661.471 353.055 659.232 351.102 657.83 349.415
C 655.169 346.213 652.515 342.995 649.965 339.703
C 643.43 331.266 637.214 322.247 629.588 314.736
C 622.706 307.958 614.193 302.633 606.156 297.353
C 599.629 293.065 593.165 288.567 586.85 283.971
C 585.341 282.873 583.849 281.743 582.41 280.554
C 581.703 279.969 580.987 279.05 580.016 279.192
C 577.057 285.049 574.142 290.916 570.412 296.339
C 569.411 297.795 568.228 301.078 566.418 301.564
C 565.938 298.321 566.698 294.56 566.811 291.276
C 567.102 282.87 567.742 274.5 568.192 266.112
C 569.478 242.154 570.815 218.209 571.868 194.239
C 571.302 194.439 571.058 195.34 570.799 195.82
C 569.703 197.848 568.421 199.81 567.25 201.801
C 562.956 209.1 558.752 216.45 554.542 223.797
C 545.656 239.301 536.193 254.528 527.668 270.231
C 524.495 276.075 520.164 281.677 517.932 287.967
C 515.84 293.862 515.196 300.495 514.228 306.649
C 513.513 311.195 511.631 316.384 511.89 320.992
C 518.715 318.403 520.309 311.597 522.903 305.527
C 526.262 297.665 530.693 289.957 534.775 282.442
C 536.557 279.16 538.208 275.714 540.228 272.573
C 540.653 271.911 541.736 269.656 542.473 269.754
C 542.506 270.399 542.538 270.982 542.418 271.62
C 541.023 279.578 541.345 287.969 540.231 296.006
C 539.971 297.882 538.909 299.353 538.552 301.166
C 539.716 301.548 540.506 300.731 541.34 300.009
C 542.777 298.763 544.129 297.203 545.912 296.442
C 550.487 294.489 555.808 296.046 560.507 295.913
C 560.003 297.079 558.063 298.574 557.083 299.479
C 554.172 302.166 551.088 304.626 548.016 307.123
C 538.218 315.091 528.622 323.297 518.612 331.003
C 513.761 334.737 508.94 338.508 504.16 342.332
C 502.53 343.635 500.838 344.853 499.182 346.122
C 498.763 346.442 496.852 347.835 496.908 347.649
C 497.942 343.559 497.461 338.726 497.886 334.496
C 499.116 322.234 501.146 309.787 503.608 297.717
C 504.622 292.742 504.884 286.701 506.935 282.044
C 508.729 277.971 511.531 274.235 513.646 270.311
C 519.812 258.866 526.477 247.707 532.853 236.379
C 535.092 232.403 537.362 228.421 539.66 224.48
C 540.802 222.522 542.236 220.454 542.828 218.249
C 542.184 217.984 541.081 218.849 540.615 219.255
C 538.844 220.8 537.204 222.517 535.504 224.14
C 528.549 230.782 520.998 236.787 514.006 243.396
C 507.959 249.112 501.647 254.599 495.325 260.007
C 491.917 262.922 487.537 265.827 484.881 269.46
C 482.705 272.436 481.63 276.705 480.05 280.047
C 478.822 282.644 477.596 285.241 476.346 287.828
C 475.783 288.992 474.843 290.221 474.817 291.555
C 474.784 293.272 475.597 295.141 476.069 296.769
C 477.19 300.633 478.471 304.441 479.685 308.276
C 483.346 319.838 486.878 331.536 491.16 342.886
C 492.524 346.499 493.546 350.22 494.822 353.861
C 495.354 355.379 496.661 357.322 496.7 358.903
C 496.203 360.469 494.46 362.144 493.489 363.481
C 491.308 366.48 489.148 369.498 487.019 372.531
C 478.519 384.636 469.33 396.481 461.83 409.228 Z
M 480.834 455.027
C 485.373 459.149 490.886 462.484 495.968 465.903
C 504.549 471.675 513.006 477.67 521.395 483.716
C 526.216 487.191 531.072 490.632 535.836 494.182
C 538.635 496.268 541.857 499.382 545.08 500.707
C 546.582 500.871 548.745 499.59 550.142 499.065
C 553.351 497.859 556.705 496.974 559.961 495.893
C 570.062 492.538 580.15 489.073 590.367 486.088
C 593.211 485.257 596.069 483.849 598.968 483.3
C 602.563 482.621 606.553 482.994 610.188 483.151
C 614.372 483.332 618.568 483.311 622.755 483.381
C 638.168 483.64 653.587 483.784 669.006 483.88
C 675.215 483.918 681.443 484.177 687.645 483.973
C 689.186 483.923 692.81 484.472 694.036 483.618
C 693.122 482.89 691.802 482.741 690.711 482.39
C 688.305 481.614 685.889 480.985 683.431 480.394
C 674.415 478.227 665.318 476.369 656.326 474.101
C 651.297 472.833 646.134 471.252 641.026 470.394
C 628.541 468.297 615.694 467.846 603.109 466.512
C 579.161 463.974 555.15 461.997 531.214 459.391
C 518.666 458.025 506.011 456.693 493.419 455.809
C 490.575 455.609 487.745 455.289 484.924 454.886
C 483.552 454.69 481.985 454.183 480.834 455.027 Z
M 509.426 525.591
C 508.98 529.087 509.732 533.898 510.654 537.287
C 511.549 537.652 512.386 536.53 512.903 535.935
C 514.355 534.262 515.769 532.558 517.148 530.824
C 522.902 523.583 529.736 516.903 534.853 509.197
C 533.314 507.757 531.387 506.718 529.665 505.516
C 527.428 503.956 525.27 502.039 522.77 500.944
C 520.146 505.756 517.452 510.534 514.685 515.269
C 512.756 518.572 510.446 521.867 509.426 525.591 Z
M 591.151 271.459
C 591.75 273.021 594.506 274.215 595.843 275.169
C 599.818 278.007 603.941 280.618 607.962 283.389
C 609.242 284.271 610.435 285.258 611.752 286.091
C 612.07 286.292 612.699 286.839 613.075 286.61
C 614.927 283.728 616.421 280.49 618.151 277.506
C 622.119 270.661 626.143 263.846 630.181 257.043
C 632.184 253.667 634.199 250.302 636.159 246.901
C 637.319 244.888 638.961 242.989 639.497 240.694
C 633.196 242.971 627.506 247.964 621.812 251.43
C 615.655 255.178 609.668 259.192 603.624 263.118
C 599.477 265.812 594.929 268.284 591.151 271.459 Z
M 623.838 293.574
C 623.809 293.738 623.779 293.901 623.75 294.065
C 627.504 296.488 631.107 299.773 634.503 302.687
C 636.029 303.997 638.081 305.3 639.327 306.854
C 639.501 306.865 639.724 306.184 639.767 306.043
C 640.087 304.994 640.432 303.954 640.75 302.904
C 642.102 298.457 643.49 293.984 644.951 289.572
C 650.241 273.594 655.109 257.454 660.004 241.349
C 661.164 237.53 662.342 233.719 663.51 229.904
C 663.722 229.209 664.755 226.697 664.143 226.168
C 662.355 227.099 661.217 229.543 660.185 231.222
C 657.649 235.348 655.223 239.542 652.694 243.673
C 642.653 260.074 633.528 276.984 623.838 293.574 Z"
opacity="1" fill="rgb(247,133,42)" fill-rule="evenodd" />
<path d="
M 293.961 730.619
C 294.6 720.906 297.012 711.456 301.944 702.983
C 318.89 673.867 360.155 668.78 385.965 688.901
C 400.003 699.845 406.846 718.891 405.887 736.265
C 405.454 744.101 403.424 751.429 400.041 758.49
C 385.352 789.151 343.033 797.158 316.14 777.766
C 306.84 771.06 300.069 761.027 296.625 750.139
C 294.685 744.006 293.537 737.068 293.961 730.619 Z
M 315.971 729.108
C 315.489 735.203 316.408 741.384 318.541 747.103
C 325.549 765.894 349.177 774.377 366.592 764.589
C 377.313 758.563 383.42 747.037 384.083 734.994
C 384.404 729.184 383.327 722.986 381.184 717.597
C 373.309 697.797 347.995 690.167 330.522 702.477
C 321.927 708.532 316.792 718.728 315.971 729.108 Z"
opacity="1" fill="rgb(247,129,38)" fill-rule="evenodd" />
<path d="
M 436.993 680.129
C 437.113 679.496 437.065 679.867 437.083 679.013
C 441.363 678.036 446.624 678.744 451.007 678.773
C 453.16 678.787 455.858 678.384 457.926 678.958
C 460.353 683.44 464.089 687.608 467.118 691.722
C 473.662 700.611 480.1 709.596 486.526 718.574
C 491.67 725.762 496.795 732.965 501.951 740.145
C 504.245 743.338 506.28 747.231 509.029 750.036
C 509.313 748.971 508.931 747.912 508.89 746.835
C 508.831 745.297 508.921 743.747 508.912 742.207
C 508.879 736.913 509.128 731.618 509.128 726.309
C 509.128 716.038 509.087 705.767 509.102 695.496
C 509.11 690.028 509.419 684.49 509.107 679.033
C 515.943 677.908 523.583 678.854 530.493 678.957
C 530.448 703.138 530.472 727.318 530.428 751.5
C 530.407 762.916 531.087 774.546 530.384 785.936
C 525.887 785.938 521.388 785.824 516.89 785.907
C 514.895 785.943 512.273 786.552 510.377 785.877
C 507.425 782.468 505.039 778.3 502.393 774.633
C 496.866 766.972 491.406 759.249 485.802 751.644
C 480.196 744.035 474.737 736.303 469.074 728.739
C 465.595 724.093 461.547 719.371 458.733 714.292
C 458.068 716.213 458.438 718.954 458.432 720.998
C 458.417 725.999 458.441 730.999 458.437 736
C 458.424 752.648 458.705 769.301 458.392 785.947
C 451.417 786.49 444.274 785.275 437.299 785.954
C 436.592 780.33 437.187 774.188 437.169 768.51
C 437.132 756.86 437.158 745.211 437.117 733.562
C 437.074 721.706 436.935 709.871 436.903 698.007
C 436.887 692.172 436.297 685.92 436.993 680.129 Z"
opacity="1" fill="rgb(247,129,38)" fill-rule="evenodd" />
<path d="
M 591.44 354.341
C 601.191 358.403 610.585 363.257 620.127 367.859
C 622.938 369.215 625.733 370.596 628.524 371.993
C 629.891 372.677 631.697 373.31 632.786 374.402
C 634.789 376.408 636.045 379.985 637.364 382.477
C 639.767 387.018 642.68 391.286 645.192 395.768
C 643.505 395.451 641.959 393.978 640.443 393.205
C 637.43 391.666 634.198 390.146 631.031 388.957
C 625.457 386.865 619.759 385.053 614.011 383.495
C 611.805 382.897 609.21 382.724 607.119 381.856
C 606.151 380.888 605.673 379.509 605.04 378.317
C 603.762 375.909 602.435 373.528 601.143 371.127
C 598.128 365.528 593.816 360.206 591.44 354.341 Z"
opacity="1" fill="rgb(246,133,43)" fill-rule="evenodd" />
<path d="
M 621.366 679.32
C 623.132 678.408 626.027 678.885 627.982 678.865
C 632.99 678.813 637.999 678.844 643.007 678.848
C 655.841 678.858 668.675 678.815 681.508 678.842
C 685.508 678.85 689.508 678.86 693.507 678.873
C 695.647 678.88 698.007 678.633 700.112 678.987
C 699.757 683.247 700.184 687.628 700.004 691.914
C 699.92 693.924 699.367 696.803 700.105 698.712
C 698.715 698.377 696.933 698.654 695.506 698.668
C 692.506 698.698 689.507 698.689 686.507 698.68
C 676.676 698.651 666.844 698.585 657.012 698.594
C 653.589 698.598 650.166 698.62 646.743 698.602
C 645.67 698.596 643.592 698.265 642.745 698.903
C 643.233 707.418 642.772 716.13 642.718 724.66
C 654.782 725.054 666.93 724.735 679.003 724.726
C 684.331 724.722 689.896 724.31 695.195 724.855
C 694.741 731.127 695.557 737.543 695.189 743.852
C 694.305 744.297 692.058 743.85 691.009 743.853
C 687.676 743.861 684.343 743.84 681.011 743.858
C 668.327 743.926 655.478 744.44 642.81 743.874
C 641.857 746.705 642.612 751.023 642.645 754.013
C 642.72 761.01 642.729 768.008 642.717 775.005
C 642.713 777.505 642.756 780.006 642.739 782.506
C 642.732 783.488 642.413 785.131 642.772 786.039
C 638.202 786.069 633.593 785.877 629.009 785.896
C 626.461 785.906 623.816 786.228 621.284 786.057
C 621.717 781.616 621.329 776.964 621.322 772.501
C 621.308 763.667 621.318 754.834 621.316 746
C 621.311 723.795 621.877 701.516 621.366 679.32 Z"
opacity="1" fill="rgb(245,129,38)" fill-rule="evenodd" />
<path d="
M 722.96 727.118
C 724.402 711.584 732.142 696.185 744.919 686.947
C 765.454 672.101 796.534 673.254 815.651 689.996
C 822.517 696.009 827.744 704.138 830.707 712.758
C 833.582 721.122 834.634 729.976 833.834 738.786
C 833.197 745.809 831.057 752.435 828.067 758.791
C 817.893 780.419 791.775 792.059 768.62 787.537
C 758.393 785.539 748.656 781.069 740.713 774.283
C 733.781 768.361 728.754 759.661 725.782 751.149
C 723.14 743.586 722.221 735.09 722.96 727.118 Z
M 744.957 728.61
C 743.833 743.168 749.91 757.899 763.292 764.893
C 773.182 770.063 786.062 769.748 795.657 764.009
C 804.837 758.518 811.41 747.931 812.139 737.245
C 812.991 724.774 809.291 711.016 798.828 703.183
C 784.492 692.451 762.744 694.682 751.942 709.493
C 747.925 715 745.481 721.829 744.957 728.61 Z"
opacity="1" fill="rgb(247,130,38)" fill-rule="evenodd" />
<path d="
M 854.291 785.702
C 857.951 781.683 860.804 776.439 863.967 771.996
C 869.131 764.744 874.428 757.587 879.568 750.315
C 882.72 745.856 885.861 741.382 889.074 736.967
C 890.518 734.983 892.799 732.624 893.747 730.394
C 893.647 729.425 891.831 727.735 891.251 726.886
C 889.044 723.654 886.799 720.451 884.624 717.197
C 879.937 710.183 874.771 703.497 870.105 696.474
C 866.227 690.638 862.477 684.312 857.93 678.982
C 858.291 678.73 858.98 678.875 859.441 678.843
C 861.11 678.728 862.828 678.817 864.503 678.803
C 870.787 678.748 877.293 678.328 883.555 678.87
C 883.647 678.941 883.739 679.013 883.831 679.085
C 888.327 686.918 893.775 694.484 898.878 701.952
C 901.395 705.636 904.21 709.35 906.156 713.374
C 906.65 713.41 907.385 711.959 907.636 711.582
C 909.017 709.507 910.429 707.465 911.828 705.402
C 916.027 699.208 920.078 692.913 924.182 686.656
C 925.783 684.216 927.3 681.544 929.153 679.292
C 931.039 678.243 934.379 678.782 936.505 678.775
C 940.505 678.762 944.505 678.761 948.505 678.795
C 950.429 678.812 952.542 678.576 954.439 678.881
C 953.782 680.346 952.497 681.71 951.556 683.025
C 949.803 685.475 948.114 687.998 946.41 690.482
C 940.317 699.36 934.205 708.234 928.177 717.157
C 926.108 720.221 923.882 723.167 921.866 726.27
C 921.094 727.458 919.838 728.631 919.568 730.036
C 928.64 741.788 936.866 754.278 945.401 766.431
C 948.905 771.421 952.62 776.245 956.004 781.319
C 957.004 782.819 958.688 784.371 959.43 785.953
C 958.933 786.14 957.945 785.881 957.407 785.881
C 955.771 785.881 954.141 785.842 952.504 785.88
C 948.341 785.977 944.172 785.91 940.008 785.913
C 937.999 785.915 935.529 786.311 933.581 785.925
C 924.801 772.849 915.782 759.928 906.851 746.965
C 904.18 750.238 902.093 754.038 899.76 757.553
C 895.586 763.838 891.422 770.201 886.972 776.291
C 885.243 778.657 883.65 781.127 881.935 783.504
C 881.396 784.25 881.047 785.456 880.26 785.966
C 871.62 785.419 862.864 786.431 854.25 786.036
C 854.264 785.925 854.277 785.813 854.291 785.702 Z"
opacity="1" fill="rgb(246,130,39)" fill-rule="evenodd" />

</svg>