<svg xmlns="http://www.w3.org/2000/svg"
shape-rendering="geometricPrecision"
width="4000" height="4000" viewBox="0 0 1024 1024">
  <metadata>null</metadata>

<path d="
M 236.84 559.506
C 239.206 555.166 242.53 551.303 245.294 547.213
C 250.953 538.836 256.663 530.505 262.422 522.199
C 276.482 501.923 290.196 481.398 304.23 461.101
C 309.664 453.242 315.12 445.399 320.557 437.542
C 322.933 434.107 326.394 430.294 327.936 426.416
C 326.823 426.152 325.437 426.787 324.372 427.074
C 321.825 427.761 319.287 428.489 316.727 429.128
C 307.041 431.546 297.326 433.864 287.666 436.373
C 284.518 437.19 281.326 437.905 278.154 438.622
C 277.334 438.808 275.301 439.601 274.587 439.113
C 275.682 436.492 279.774 434.402 281.996 432.755
C 288.445 427.973 295.204 423.622 301.719 418.927
C 308.881 413.767 316.382 409.074 323.601 403.992
C 332.931 397.424 342.082 390.602 351.42 384.039
C 356.918 380.174 362.422 376.303 367.987 372.533
C 371.078 370.439 374.454 368.438 377.127 365.816
C 375.601 363.805 371.805 362.466 369.614 361.27
C 364.671 358.573 359.852 355.644 354.938 352.896
C 353.11 351.874 349.522 350.7 348.296 349.023
C 350.14 347.692 353.084 347.213 355.19 346.326
C 362.083 343.423 369.227 341.123 376.204 338.438
C 396.285 330.708 416.307 322.817 436.471 315.31
C 442.855 312.933 449.267 310.589 455.609 308.104
C 457.889 307.21 461.313 306.767 463.288 305.363
C 465.036 304.12 465.945 300.39 466.832 298.514
C 468.733 294.487 470.659 290.458 472.483 286.392
C 473.517 284.088 474.33 281.343 476.157 279.529
C 483.382 272.356 491.714 265.955 499.393 259.257
C 516.636 244.217 533.8 229.096 551.125 214.145
C 558.763 207.553 566.533 201.025 574.03 194.276
C 576.56 191.998 579.07 189.695 581.727 187.566
C 582.993 186.551 584.138 185.28 585.657 184.648
C 585.907 185.032 585.792 185.907 585.794 186.374
C 585.799 188.065 585.717 189.766 585.652 191.457
C 585.417 197.612 585.142 203.761 584.854 209.914
C 583.743 233.638 582.518 257.369 580.962 281.069
C 580.968 281.228 583.697 279.704 584.109 279.447
C 586.268 278.098 588.407 276.701 590.547 275.321
C 596.827 271.27 603.302 267.507 609.619 263.512
C 628.901 251.316 648.489 239.566 667.593 227.092
C 672.361 223.978 677.149 220.947 682.036 218.035
C 682.934 217.5 685.854 215.273 686.861 215.764
C 686.465 218.344 685.435 220.898 684.765 223.429
C 682.933 230.349 680.847 237.236 678.678 244.057
C 674.717 256.513 671.024 269.06 667.112 281.534
C 664.463 289.981 661.515 298.361 659.118 306.885
C 657.067 314.18 654.258 321.235 652.138 328.504
C 651.444 330.885 649.727 334.099 649.794 336.544
C 654.846 344.066 660.876 351.263 666.521 358.363
C 668.225 360.505 669.82 362.731 671.499 364.892
C 672.381 366.027 673.579 367.118 674.032 368.515
C 675.363 372.618 675.5 377.224 676.197 381.466
C 677.282 388.072 678.497 394.653 679.798 401.22
C 680.283 403.666 680.716 406.134 681.098 408.599
C 681.29 409.837 681.339 411.353 682.016 412.426
C 684.588 414.965 688.309 416.79 691.329 418.764
C 697.662 422.904 704.035 427.01 710.305 431.246
C 723.087 439.881 735.86 448.717 748.958 456.865
C 753.527 459.707 757.75 463.346 762.396 466.005
C 761.893 466.839 760.78 467.496 760.038 468.118
C 758.335 469.548 756.678 471.025 754.986 472.468
C 749.626 477.038 744.324 481.705 738.848 486.143
C 730.368 493.014 722.151 500.181 713.374 506.697
C 710.75 508.645 708.108 510.572 705.462 512.487
C 704.348 513.293 703.079 514.531 701.783 515.015
C 699.606 515.827 696.16 515.021 693.855 515.022
C 687.402 515.027 680.954 514.901 674.505 514.894
C 659.012 514.877 643.506 514.859 628.014 514.64
C 622.167 514.557 616.318 514.534 610.471 514.53
C 607.672 514.529 604.823 514.146 602.027 514.429
C 600.469 514.586 598.924 515.327 597.428 515.771
C 594.291 516.702 591.172 517.667 588.065 518.695
C 579.985 521.369 571.822 523.793 563.76 526.518
C 560.533 527.608 557.294 528.712 554.038 529.71
C 552.309 530.239 550.058 530.5 548.578 531.58
C 547.012 532.722 545.979 534.586 544.737 536.047
C 541.454 539.908 538.444 544.036 535.257 547.982
C 530.828 553.464 526.238 558.875 521.606 564.185
C 519.303 566.825 516.049 569.434 514.175 572.352
C 514.906 583.233 514.211 594.492 513.871 605.386
C 513.793 607.899 514.023 610.665 513.464 613.115
C 513.394 613.418 513.567 615.338 513.168 615.28
C 511.339 614.029 510.847 609.413 510.271 607.385
C 508.172 600.004 506.698 592.381 504.438 585.076
C 503.008 585.21 501.55 587.75 500.634 588.748
C 497.253 592.432 494.137 596.36 490.767 600.048
C 479.494 612.384 469.128 625.611 458.188 638.252
C 455.451 641.414 452.859 644.693 450.1 647.838
C 448.875 649.235 447.843 651.292 445.982 651.881
C 445.509 651.061 445.686 649.552 445.64 648.6
C 445.519 646.129 445.336 643.623 445.11 641.159
C 444.305 632.369 443.654 623.569 442.756 614.793
C 440.397 591.748 438.719 568.585 437.164 545.486
C 436.445 534.81 434.47 523.902 434.641 513.193
C 425.169 515.67 415.522 517.644 405.989 519.897
C 371.464 528.058 337 536.504 302.52 544.858
C 288.886 548.161 275.168 551.248 261.591 554.767
C 255.926 556.235 250.243 557.618 244.544 558.943
C 241.913 559.554 239.258 560.471 236.552 560.623
C 236.621 559.853 236.527 560.226 236.84 559.506 Z
M 264.222 541.234
C 265.548 541.336 266.929 540.719 268.194 540.364
C 270.81 539.63 273.481 539.017 276.121 538.366
C 285.793 535.979 295.474 533.62 305.147 531.247
C 336.752 523.492 368.427 515.911 400.102 508.448
C 411.414 505.783 422.647 502.812 434.002 500.326
C 436.987 499.673 439.982 498.796 442.999 498.326
C 443.694 498.218 445.25 497.701 445.874 497.978
C 446.21 507.347 447.312 516.691 448.072 526.032
C 449.456 543.028 450.67 560.041 452.077 577.033
C 452.954 587.619 453.502 598.268 454.692 608.822
C 455.129 612.706 454.648 617.308 455.92 621.008
C 457.793 619.987 459.122 617.716 460.487 616.107
C 463.526 612.523 466.494 608.873 469.579 605.328
C 476.637 597.216 483.437 588.868 490.56 580.808
C 493.177 577.847 495.86 574.945 498.469 571.974
C 499.27 571.061 500.431 570.296 501.073 569.273
C 500.863 567.05 500.133 564.767 499.769 562.548
C 499.111 558.544 498.563 554.522 497.887 550.52
C 497.502 548.242 496.598 545.346 496.801 543.047
C 496.885 542.092 497.64 541.167 498.111 540.359
C 499.265 538.38 500.393 536.383 501.473 534.362
C 505.477 526.871 509.566 519.306 513.939 512.034
C 512.327 511.224 510.898 509.861 509.434 508.808
C 506.658 506.811 503.817 504.877 500.983 502.964
C 489.281 495.066 477.802 486.812 466.23 478.725
C 462.104 475.841 457.83 473.152 453.73 470.229
C 451.512 468.647 449.271 466.628 446.844 465.41
C 446.747 464.693 447.586 463.934 448.045 463.373
C 449.203 461.958 450.381 460.56 451.517 459.126
C 454.891 454.866 458.336 450.667 461.646 446.357
C 462.882 444.747 465.243 442.772 465.86 440.851
C 465.499 440.626 464.371 441.152 463.917 441.212
C 461.576 441.521 459.313 442.603 457.109 443.395
C 451.235 445.507 445.349 447.747 439.572 450.109
C 437.718 450.867 435.827 451.511 433.942 452.183
C 433.072 452.493 432.102 453.114 431.167 453.103
C 431.955 450.814 433.746 448.686 435.013 446.635
C 438.161 441.54 441.424 436.526 444.752 431.546
C 452.112 420.532 459.222 409.25 466.958 398.498
C 470.485 393.595 474.034 388.709 477.614 383.845
C 479.446 381.357 481.642 378.898 483.227 376.258
C 483.479 375.107 482.342 373.191 481.977 372.067
C 480.663 368.027 479.275 363.991 477.884 359.974
C 474.583 350.438 471.532 340.79 468.455 331.179
C 467.114 326.993 465.13 322.762 464.143 318.499
C 450.953 322.459 438.213 328.32 425.299 333.118
C 415.611 336.718 406.031 340.639 396.303 344.133
C 390.266 346.302 384.005 348.349 378.132 350.922
C 381.319 354.312 386.438 356.604 390.446 358.905
C 393.756 360.805 396.976 363.537 400.462 365.049
C 400.173 366.114 396.979 367.545 396.038 368.235
C 391.884 371.28 387.625 374.174 383.347 377.042
C 372.031 384.627 361.093 392.783 349.732 400.303
C 346.45 402.475 343.121 404.595 339.771 406.661
C 337.648 407.971 335.135 409.234 333.641 411.29
C 334.375 412.042 336.962 410.84 337.883 410.613
C 341.954 409.613 345.872 407.827 349.883 406.599
C 358.879 403.844 367.852 401.006 376.858 398.275
C 381.222 396.952 385.558 395.225 390.022 394.257
C 393.805 393.437 397.083 394.992 400.641 396.139
C 401.844 396.527 403.849 396.726 404.648 397.741
C 404.895 399.359 405.231 401.08 405.32 402.71
C 400.54 403.141 395.297 405.535 390.734 407.001
C 382.128 409.766 373.487 412.465 364.811 415.01
C 360.983 416.133 357.167 417.315 353.334 418.419
C 351.621 418.912 349.234 419.209 347.817 420.296
C 343.67 425.632 340.293 431.592 336.349 437.083
C 326.749 450.451 317.528 464.091 308.277 477.7
C 298.352 492.299 288.299 506.852 278.171 521.314
C 273.525 527.947 268.628 534.449 264.222 541.234 Z
M 462.976 426.545
C 462.587 427.321 462.683 426.925 462.645 427.721
C 465.859 427.37 469.036 425.823 472.061 424.732
C 474.867 423.72 477.702 422.845 480.482 421.757
C 487.156 419.144 494.135 417.31 500.79 414.702
C 501.17 415.009 500.226 415.874 500.014 416.116
C 498.826 417.471 497.726 418.942 496.701 420.424
C 492.554 426.423 486.417 431.589 483.255 438.207
C 483.905 438.653 486.747 436.727 487.455 436.383
C 491.922 434.214 496.223 431.523 500.585 429.139
C 514.25 421.669 528.325 414.942 542.051 407.587
C 545.613 405.678 549.268 403.927 552.804 401.97
C 553.706 401.471 555.404 399.803 556.412 399.95
C 559.717 402.469 563.823 404.359 567.42 406.463
C 576.108 411.542 585.107 416.252 593.531 421.757
C 599.005 425.335 603.337 429.948 607.864 434.615
C 610.873 437.716 613.982 440.719 616.975 443.835
C 617.714 444.603 619.847 446.162 619.996 447.198
C 614.796 445.942 609.951 442.52 605.014 440.471
C 587.965 433.397 571.977 424.012 556.025 414.794
C 553.539 415.031 550.864 417.014 548.685 418.144
C 543.191 420.992 537.822 424.082 532.301 426.879
C 517.797 434.225 503.246 441.735 489.092 449.74
C 483.19 453.078 476.487 455.487 471.118 459.677
C 471.244 460.197 471.924 460.05 472.407 460.101
C 473.85 460.253 475.305 460.342 476.745 460.52
C 482.627 461.247 488.601 461.379 494.506 461.92
C 519.342 464.196 544.165 466.624 569.001 468.964
C 584.51 470.425 600.046 471.929 615.534 473.61
C 623.253 474.448 631.127 474.74 638.794 475.975
C 642.826 476.625 646.744 477.864 650.71 478.817
C 656.328 480.167 662.001 481.312 667.654 482.505
C 678.119 484.714 688.565 487.141 698.985 489.547
C 702.118 490.271 705.265 490.892 708.412 491.543
C 709.502 491.768 711.088 492.462 712.186 492.115
C 721.255 483.348 731.451 475.545 741.036 467.354
C 740.239 465.838 737.12 464.537 735.701 463.556
C 731.071 460.357 726.239 457.482 721.554 454.371
C 710.101 446.765 698.597 439.202 687.249 431.445
C 682.072 427.906 675.593 424.807 671.172 420.318
C 670.276 419.408 670.297 417.799 670.07 416.616
C 669.561 413.959 669.072 411.297 668.528 408.647
C 666.844 400.439 665.51 392.171 664.035 383.924
C 663.624 381.629 663.236 379.32 662.96 377.004
C 662.821 375.838 662.997 374.39 662.477 373.315
C 661.692 371.693 660.026 370.35 658.884 368.967
C 656.122 365.62 653.308 362.292 650.681 358.839
C 643.674 349.625 636.896 339.569 628.277 331.754
C 620.373 324.589 610.931 319.193 602.225 313.097
C 597.036 309.464 591.81 305.864 586.678 302.151
C 584.798 300.791 582.764 298.375 580.578 297.632
C 577.631 303.767 574.491 309.572 570.842 315.319
C 570.192 316.343 568.447 320.718 566.89 320.125
C 566.693 317.695 567.161 315.113 567.253 312.671
C 567.499 306.142 567.836 299.643 568.209 293.129
C 569.321 273.713 570.757 254.23 571.313 234.795
C 571.452 229.965 571.691 225.133 571.883 220.297
C 571.977 217.93 572.385 215.469 572.12 213.107
C 569.283 216.945 567.224 221.558 564.818 225.682
C 559.674 234.497 554.689 243.403 549.52 252.204
C 541.82 265.316 534.002 278.371 526.752 291.739
C 523.979 296.853 520.258 301.413 518.308 306.964
C 517.097 310.411 516.702 314.273 516.06 317.861
C 514.794 324.936 513.543 332.013 512.216 339.073
C 517.763 338.686 519.868 333.362 521.683 328.734
C 525.538 318.905 530.754 309.536 535.708 300.223
C 537.315 297.202 538.951 294.225 540.65 291.255
C 541.078 290.509 542.013 288.51 542.93 288.407
C 543.34 291.293 542.713 294.629 542.442 297.533
C 542.002 302.239 541.849 307.012 541.19 311.695
C 540.976 313.214 540.92 314.888 540.457 316.353
C 540.041 317.67 538.977 318.588 539.449 320.051
C 542.071 319.441 544.24 316.331 546.583 314.986
C 549.416 313.359 554.073 314.213 557.221 314.189
C 558.39 314.181 559.929 313.933 561.016 314.444
C 560.042 316.12 558.362 317.462 556.969 318.787
C 553.661 321.935 550.064 324.752 546.541 327.653
C 535.448 336.791 524.273 345.816 512.954 354.675
C 509.062 357.72 505.282 360.969 501.297 363.89
C 500.401 364.547 499.481 365.188 498.637 365.912
C 498.437 366.084 497.974 366.769 497.684 366.624
C 497.98 350.846 500.458 334.637 503.6 319.179
C 504.433 315.08 505.15 310.958 505.983 306.858
C 506.447 304.575 506.65 302.313 507.744 300.212
C 509.343 297.14 511.368 294.264 513.045 291.224
C 519.356 279.779 525.762 268.391 532.241 257.039
C 534.75 252.642 537.337 248.288 539.826 243.88
C 540.964 241.864 542.846 239.462 543.166 237.133
C 540.984 237.402 538.833 240.177 537.326 241.659
C 533.519 245.403 529.392 248.857 525.411 252.413
C 517.641 259.355 509.967 266.406 502.116 273.259
C 498.24 276.642 494.325 279.981 490.453 283.37
C 488.725 284.882 486.401 286.445 485.113 288.364
C 483.495 290.775 482.71 294.058 481.51 296.708
C 480.109 299.799 478.643 302.842 477.098 305.862
C 476.363 307.298 475.131 308.855 475.327 310.542
C 475.626 313.12 476.675 315.712 477.46 318.173
C 478.846 322.519 480.238 326.86 481.651 331.197
C 484.599 340.246 487.214 349.49 490.607 358.386
C 492.469 363.268 494.117 368.274 495.676 373.261
C 496.095 374.599 497.364 376.52 497.359 377.881
C 496.792 379.042 495.705 379.952 494.949 380.996
C 492.64 384.182 490.254 387.319 487.946 390.503
C 483.423 396.743 479.144 403.174 474.743 409.502
C 470.798 415.176 466.546 420.609 462.976 426.545 Z
M 481.049 473.304
C 483.551 475.752 486.587 477.702 489.456 479.695
C 496.343 484.481 503.481 488.954 510.23 493.935
C 518.229 499.841 526.296 505.698 534.444 511.402
C 538.166 514.007 541.704 517.404 545.755 519.481
C 547.121 519.686 548.934 518.429 550.215 517.964
C 553.915 516.618 557.718 515.493 561.45 514.232
C 568.675 511.79 575.97 509.584 583.211 507.194
C 588.535 505.436 593.979 502.98 599.478 501.864
C 602.48 501.254 605.687 501.497 608.726 501.584
C 613.25 501.713 617.773 501.751 622.298 501.806
C 637.697 501.994 653.099 502.218 668.503 502.393
C 674.505 502.462 680.502 502.682 686.504 502.688
C 688.198 502.689 689.829 502.581 691.509 502.432
C 692.201 502.371 693.097 502.626 693.706 502.243
C 693.749 501.072 692.149 500.94 691.28 500.693
C 688.342 499.858 685.376 499.15 682.395 498.483
C 669.993 495.708 657.63 492.822 645.28 489.82
C 633.541 486.967 621.024 486.882 609.046 485.566
C 588.585 483.319 568.076 481.601 547.605 479.534
C 533.438 478.103 519.269 476.861 505.103 475.516
C 500.152 475.046 495.165 474.723 490.229 474.166
C 487.232 473.827 484.057 472.983 481.049 473.304 Z
M 509.957 544.094
C 509.711 546.549 510.191 549.301 510.474 551.747
C 510.639 553.174 510.656 554.666 511.321 555.966
C 513.579 555.917 516.071 551.53 517.463 549.961
C 521.526 545.382 525.261 540.5 529.132 535.759
C 531.096 533.353 533.991 530.834 535.102 527.933
C 532.653 525.868 529.823 524.125 527.213 522.253
C 525.987 521.374 524.811 520.245 523.422 519.645
C 520.809 524.105 518.368 528.664 515.757 533.127
C 513.696 536.648 511.323 540.233 509.957 544.094 Z
M 591.824 289.894
C 591.364 291.092 595.329 293.152 596.386 293.907
C 600.608 296.924 604.993 299.734 609.317 302.599
C 610.324 303.266 612.433 305.437 613.671 305.27
C 615.36 301.289 617.976 297.54 620.087 293.762
C 623.903 286.934 627.835 280.161 631.96 273.515
C 633.93 270.341 635.842 267.129 637.707 263.892
C 638.572 262.39 639.739 260.848 640.186 259.164
C 631.142 263.766 622.764 269.871 614.185 275.29
C 609.316 278.367 604.548 281.558 599.73 284.715
C 597.104 286.436 594.243 287.894 591.824 289.894 Z
M 624.374 312.09
C 624.332 312.246 624.291 312.402 624.249 312.559
C 627.687 314.882 630.9 317.906 634.059 320.603
C 635.963 322.227 638.17 323.63 639.935 325.401
C 641.712 322.267 642.469 317.969 643.468 314.516
C 644.679 310.329 646.172 306.225 647.34 302.024
C 650.862 289.367 655.439 276.985 659.147 264.374
C 660.546 259.616 662.072 254.897 663.491 250.144
C 663.813 249.063 665.168 246.119 664.636 245.18
C 662.802 245.398 661.799 247.87 660.939 249.341
C 658.718 253.14 656.58 257.076 654.169 260.756
C 645.443 274.075 638.038 288.315 629.918 302.008
C 627.968 305.295 626.469 308.903 624.374 312.09 Z"
opacity="1" fill="rgb(247,133,42)" fill-rule="evenodd" />
<path d="
M 592.354 373.348
C 594.137 373.286 595.527 374.392 597.102 375.073
C 601.091 376.798 604.941 378.802 608.81 380.78
C 614.853 383.869 621.086 386.579 627.12 389.685
C 628.999 390.652 631.79 391.426 633.314 392.88
C 634.973 394.464 635.812 397.304 636.947 399.272
C 639.881 404.36 642.735 409.653 645.92 414.572
C 645.684 414.955 643.077 413.135 642.725 412.909
C 639.722 410.988 635.911 409.481 632.587 408.195
C 627.055 406.053 621.511 404.16 615.816 402.487
C 613.348 401.762 609.911 401.874 607.698 400.654
C 605.773 398.771 604.648 395.519 603.394 393.146
C 601.036 388.681 598.447 384.411 595.821 380.103
C 594.742 378.334 591.895 375.437 592.354 373.348 Z"
opacity="1" fill="rgb(247,133,43)" fill-rule="evenodd" />

</svg>