<svg xmlns="http://www.w3.org/2000/svg"
shape-rendering="geometricPrecision"
width="4000" height="4000" viewBox="0 0 587 587">
  <metadata>null</metadata>

<path d="
M 25.828 474.953
C 26.187 474.281 27.269 474.408 27.931 474.584
C 29.916 476.568 30.976 479.472 32.545 481.789
C 32.947 482.382 33.589 483.855 34.355 483.938
C 35.234 481.915 36.589 480.084 37.642 478.137
C 38.167 477.165 38.631 475.91 39.527 475.211
C 40.212 474.676 41.208 474.733 42.004 474.926
C 42.024 476.146 40.727 477.316 40.094 478.324
C 38.545 480.791 36.534 483.371 35.379 486.041
C 34.435 488.224 35.26 491.879 35.198 494.256
C 34.432 494.08 33.523 494.426 32.8 494.12
C 33.006 491.966 33.563 488.361 32.814 486.313
C 31.301 482.177 27.254 479.101 25.828 474.953 Z"
opacity="0.996" fill="rgb(241,136,55)" fill-rule="evenodd" />
<path d="
M 27.314 381.927
C 31.292 381.658 35.607 381.518 39.58 381.863
C 40.49 383.956 42.379 385.89 43.745 387.717
C 45.56 390.144 47.369 392.586 49.141 395.045
C 55.967 404.516 62.754 414.034 69.545 423.51
C 69.928 422.551 69.579 421.034 69.559 420.002
C 69.506 417.221 69.459 414.425 69.448 411.649
C 69.422 404.876 69.523 398.116 69.63 391.354
C 69.678 388.279 69.332 384.959 69.787 381.923
C 72.684 381.655 75.676 381.859 78.584 381.879
C 79.66 381.886 81.328 381.563 82.3 382.008
C 81.589 402.674 82.98 423.422 82.293 444.091
C 78.417 444.429 74.135 444.215 70.222 444.229
C 66.904 440.112 64.01 435.535 60.957 431.216
C 56.142 424.405 51.224 417.68 46.26 410.979
C 44.142 408.121 42.207 405.017 39.773 402.424
C 40.363 416.307 39.221 430.273 39.883 444.161
C 35.662 443.951 31.446 443.803 27.226 444.113
C 27.699 429.617 27.341 415.012 27.274 400.506
C 27.246 394.34 26.951 388.082 27.314 381.927 Z"
opacity="1" fill="rgb(246,130,38)" fill-rule="evenodd" />
<path d="
M 41.391 486.09
C 41.771 484.539 42.027 483.094 43.08 481.812
C 45.583 478.765 50.772 478.797 53.139 481.997
C 54.84 484.297 55.151 486.998 54.551 489.743
C 54.2 490.745 53.709 491.711 52.99 492.502
C 48.112 497.866 40.709 492.3 41.391 486.09 Z
M 43.898 484.544
C 43.102 486.85 43.647 489.997 45.552 491.604
C 47.916 493.598 51.198 491.537 52.122 489.084
C 52.938 486.918 52.589 484.128 50.856 482.51
C 48.524 480.332 44.868 481.733 43.898 484.544 Z"
opacity="1" fill="rgb(237,139,66)" fill-rule="evenodd" />
<path d="
M 56.879 484.552
C 58.306 481.143 60.509 478.818 64.522 479.915
C 65.266 480.118 66.958 481.576 67.62 481.391
C 67.933 480.897 67.999 480.234 68.079 479.659
C 70.268 479.273 69.74 483.128 69.76 484.502
C 69.817 488.673 70.967 496.529 66.711 499.048
C 64.684 500.248 61.692 500.184 59.649 499.037
C 58.641 498.471 56.625 496.62 57.903 495.426
C 60.536 495.773 61.861 498.174 64.888 497.172
C 66.208 496.735 66.812 495.336 67.151 494.098
C 67.229 493.813 67.512 492.5 67.1 492.383
C 65.929 493.033 64.771 493.879 63.412 494.082
C 58.063 494.878 56.276 488.549 56.879 484.552 Z
M 58.999 486.607
C 58.98 488.747 60.078 490.933 62.199 491.65
C 64.542 492.442 67.157 490.252 67.24 487.934
C 67.286 486.663 67.456 484.779 66.703 483.679
C 63.931 479.629 59.038 482.281 58.999 486.607 Z"
opacity="1" fill="rgb(234,139,66)" fill-rule="evenodd" />
<path d="
M 72.367 489.57
C 73.236 487.162 75.745 485.891 78.206 485.682
C 79.059 485.61 81.156 485.906 81.812 485.342
C 81.793 484.852 81.544 484.478 81.42 484.013
C 80.118 479.156 75.683 483.27 72.975 483.977
C 72.619 479.162 80.334 478.386 82.743 481.417
C 85.287 484.615 83.934 490.775 84.219 494.599
C 83.752 494.758 83.276 494.571 82.842 494.384
C 82.59 493.803 82.401 492.836 81.701 493.008
C 80.79 493.573 79.988 494.397 78.924 494.671
C 75.415 495.573 71.83 493.365 72.367 489.57 Z
M 74.994 490.612
C 75.106 491.348 74.993 491.013 75.307 491.625
C 77.446 493.165 80.433 492.178 81.405 489.71
C 81.593 489.034 81.601 488.422 81.582 487.726
C 79.149 487.003 75.384 487.583 74.994 490.612 Z"
opacity="1" fill="rgb(235,138,64)" fill-rule="evenodd" />
<path d="
M 94.822 484.526
C 95.593 482.173 98.846 481.242 100.71 482.874
C 101.939 483.95 102.195 485.761 101.767 487.276
C 100.503 491.752 93.308 489.147 94.822 484.526 Z"
opacity="1" fill="rgb(244,129,40)" fill-rule="evenodd" />
<path d="
M 103.996 383.125
C 104.107 382.512 104.054 382.865 104.133 382.063
C 105.593 381.575 107.475 381.848 109.008 381.839
C 112.341 381.822 115.674 381.828 119.008 381.835
C 126.008 381.85 133.007 381.836 140.007 381.855
C 143.29 381.865 146.673 381.618 149.941 381.903
C 149.777 385.738 150.164 389.581 150.126 393.413
C 146.716 393.986 142.496 393.277 139.006 393.264
C 131.58 393.235 124.127 393.431 116.708 393.286
C 116.208 394.26 116.577 395.913 116.572 397.007
C 116.556 400.402 116.54 403.804 116.635 407.197
C 119.28 408.006 123.22 407.273 126.007 407.273
C 132.901 407.273 139.81 407.399 146.701 407.234
C 147.095 408.265 146.816 409.812 146.829 410.92
C 146.857 413.36 147.228 416.051 146.859 418.462
C 140.591 418.215 134.284 418.403 128.011 418.402
C 124.324 418.401 120.256 417.955 116.63 418.646
C 116.763 423.346 116.591 428.054 116.664 432.754
C 127.996 432.889 139.358 432.381 150.691 432.783
C 150.206 436.425 150.545 440.532 150.622 444.215
C 150.349 444.488 148.26 444.203 147.817 444.197
C 144.883 444.157 141.947 444.15 139.012 444.131
C 131.511 444.081 124.011 444.092 116.511 444.094
C 112.433 444.095 108.246 443.849 104.181 444.174
C 103.712 442.68 104.102 440.579 104.095 439.001
C 104.078 435.223 104.186 431.428 104.045 427.652
C 103.701 418.454 103.914 409.209 103.92 400.004
C 103.923 394.46 103.435 388.637 103.996 383.125 Z"
opacity="1" fill="rgb(249,130,37)" fill-rule="evenodd" />
<path d="
M 113.407 474.429
C 116.451 474.314 121.611 473.807 124.351 475.263
C 128.152 477.282 128.655 483.799 124.925 486.036
C 122.308 487.606 118.615 487.069 115.716 487.273
C 115.696 489.635 115.819 491.991 115.852 494.352
C 115.009 494.3 113.947 494.49 113.17 494.172
C 113.411 487.705 112.957 481.213 113.143 474.75
C 113.231 474.643 113.319 474.536 113.407 474.429 Z
M 115.783 476.829
C 115.504 479.41 115.595 482.051 115.684 484.643
C 117.713 485.349 121.974 485.209 123.709 483.768
C 125.436 482.332 125.367 478.643 123.387 477.378
C 121.365 476.088 118.059 476.861 115.783 476.829 Z"
opacity="1" fill="rgb(236,145,62)" fill-rule="evenodd" />
<path d="
M 129.944 473.347
C 130.851 473.201 131.694 473.263 132.403 473.873
C 132.854 474.68 132.972 475.512 132.902 476.43
C 132.041 476.742 131.112 476.771 130.205 476.772
C 129.694 475.722 129.897 474.475 129.944 473.347 Z"
opacity="0.996" fill="rgb(230,143,70)" fill-rule="evenodd" />
<path d="
M 130.318 480.033
C 130.458 479.856 130.599 479.679 130.739 479.502
C 131.396 479.456 131.994 479.45 132.636 479.608
C 133.235 484.446 132.663 489.486 132.731 494.35
C 132.006 494.192 131.148 494.307 130.413 494.349
C 129.873 493.742 130.25 491.555 130.26 490.712
C 130.303 487.199 129.874 483.515 130.318 480.033 Z"
opacity="1" fill="rgb(226,141,67)" fill-rule="evenodd" />
<path d="
M 133.377 302.646
C 146.885 283.779 159.338 264.119 172.593 245.059
C 176.011 240.143 179.57 235.291 182.876 230.299
C 183.624 229.171 186.368 226.516 186.186 225.155
C 179.364 226.851 172.417 228.416 165.651 230.338
C 163.355 230.99 161.002 231.413 158.71 232.078
C 157.524 232.422 156.28 232.861 155.045 232.639
C 156.315 230.795 158.798 229.478 160.587 228.15
C 165.045 224.841 169.609 221.657 174.257 218.62
C 183.006 212.903 191.34 206.578 199.919 200.615
C 204.656 197.322 210.191 194.382 214.41 190.44
C 213.369 189.138 211.119 188.318 209.674 187.507
C 205.831 185.349 201.919 183.304 198.112 181.086
C 199.142 179.69 201.827 179.261 203.43 178.682
C 207.858 177.081 212.245 175.358 216.685 173.784
C 228.21 169.697 239.551 165.078 250.994 160.767
C 255.408 159.104 260.373 157.95 264.577 155.834
C 265.737 154.8 266.15 152.81 266.778 151.415
C 268.418 147.772 270.266 142.758 273.127 139.935
C 275.601 137.496 278.514 135.402 281.154 133.139
C 287.175 127.977 293.267 122.883 299.189 117.606
C 306.199 111.36 313.5 105.448 320.553 99.251
C 325.634 94.786 330.666 90.175 336.104 86.141
C 335.906 100.284 334.898 114.45 334.16 128.576
C 333.988 131.884 333.89 135.192 333.732 138.5
C 333.704 139.093 333.266 141.204 334.043 141.387
C 334.958 141.602 337.131 139.61 337.905 139.156
C 341.797 136.872 345.598 134.43 349.468 132.108
C 359.796 125.911 369.929 119.384 380.16 113.03
C 383.124 111.188 386.139 109.431 389.11 107.6
C 391.086 106.382 393.08 104.784 395.268 103.998
C 395.339 105.741 394.256 107.767 393.747 109.427
C 392.706 112.82 391.728 116.236 390.703 119.634
C 386.756 132.72 382.706 145.783 378.55 158.804
C 377.379 162.472 376.179 166.132 375.077 169.822
C 374.674 171.173 373.78 172.623 373.819 174.043
C 376.696 178.264 380.284 182.307 383.469 186.327
C 385.073 188.352 387.144 190.562 387.988 193.038
C 388.729 195.215 388.811 197.695 389.165 199.959
C 389.697 203.356 390.448 206.712 391.074 210.091
C 391.487 212.315 391.558 215.594 392.83 217.508
C 393.822 219 396.053 219.961 397.54 220.88
C 400.408 222.652 403.169 224.616 405.982 226.475
C 413.313 231.321 420.699 236.087 428.028 240.939
C 431.484 243.227 435.038 246.426 438.81 248.113
C 438.402 249.3 435.87 250.84 434.921 251.688
C 431.685 254.578 428.352 257.336 425.055 260.155
C 420.032 264.449 414.942 268.675 409.49 272.419
C 407.792 273.586 405.907 275.612 403.906 276.194
C 402.318 276.657 400.386 276.404 398.75 276.391
C 395.658 276.366 392.566 276.323 389.474 276.315
C 379.653 276.29 369.831 276.295 360.011 276.173
C 355.374 276.115 350.093 275.282 345.52 276.039
C 342.646 276.515 339.757 277.772 336.998 278.693
C 332.388 280.232 327.728 281.609 323.121 283.16
C 320.503 284.041 316.274 284.425 314.146 286.167
C 312.361 287.628 311.136 289.862 309.657 291.621
C 304.669 297.55 299.911 304.221 294.184 309.445
C 293.687 311.06 294.213 313.497 294.182 315.227
C 294.105 319.501 293.872 323.757 293.881 328.033
C 293.885 329.693 293.788 331.381 293.899 333.038
C 293.934 333.564 294.203 334.369 293.898 334.841
C 292.847 334.339 292.583 332.096 292.304 331.057
C 291.431 327.803 290.492 324.568 289.623 321.313
C 289.35 320.291 289.14 317.084 287.976 317.169
C 279.342 326.276 271.557 336.208 263.257 345.617
C 261.223 347.923 259.277 350.312 257.264 352.636
C 256.543 353.469 255.745 355.053 254.706 355.429
C 253.706 352.588 254.016 348.852 253.776 345.843
C 253.261 339.4 252.588 332.976 252.13 326.526
C 251.266 314.345 250.121 302.194 249.12 290.029
C 248.737 285.37 247.922 280.557 247.891 275.89
C 247.396 275.41 246.472 275.914 245.844 276.07
C 244.214 276.473 242.59 276.918 240.948 277.266
C 233.861 278.767 226.827 280.716 219.788 282.436
C 200.907 287.049 181.884 291.179 163.052 295.999
C 156.081 297.783 149.061 299.372 142.055 301.014
C 139.206 301.682 136.133 302.864 133.228 303.13
C 133.278 302.969 133.327 302.808 133.377 302.646 Z
M 149.453 291.667
C 149.374 291.815 149.295 291.962 149.216 292.11
C 152.011 291.981 155.386 290.567 158.117 289.845
C 164.225 288.228 170.357 286.713 176.519 285.31
C 193.011 281.553 209.461 277.533 225.891 273.517
C 235.291 271.22 244.655 268.424 254.171 266.661
C 255.008 268.345 254.744 271.078 254.893 272.943
C 255.262 277.569 255.441 282.262 256.001 286.868
C 258.051 303.716 258.705 320.832 260.228 337.734
C 260.561 337.96 261.731 336.506 261.992 336.182
C 263.405 334.425 264.849 332.694 266.312 330.977
C 270.91 325.581 275.445 320.113 280.091 314.763
C 282.079 312.474 284.593 310.336 286.32 307.857
C 286.492 306.665 285.967 305.394 285.726 304.231
C 285.245 301.904 285.024 299.536 284.589 297.202
C 284.349 295.913 283.756 294.346 283.958 293.025
C 284.188 291.531 285.529 289.846 286.263 288.537
C 287.959 285.515 289.541 282.414 291.357 279.459
C 292.263 277.985 293.719 276.214 294.063 274.502
C 285.649 268.338 276.827 262.417 268.101 256.681
C 263.888 253.911 259.688 249.875 254.942 248.088
C 256.858 244.357 260.523 240.696 263.279 237.517
C 263.924 236.772 266.363 234.651 266.199 233.674
C 261.63 234.036 256.206 236.659 252.087 238.603
C 250.678 239.268 247.64 241.184 246.144 240.644
C 247.854 236.979 250.504 233.543 252.691 230.139
C 257.569 222.545 262.902 215.275 268.01 207.84
C 269.873 205.127 271.827 202.492 273.757 199.829
C 274.496 198.808 275.863 197.66 276.201 196.437
C 276.453 194.311 274.536 190.872 273.817 188.832
C 271.785 183.062 269.939 177.235 267.908 171.467
C 267.239 169.567 266.656 167.625 266.053 165.704
C 265.845 165.043 265.664 163.743 265.191 163.262
C 261.462 164.151 257.84 166.006 254.247 167.34
C 246.825 170.094 239.412 172.881 232.019 175.707
C 227.712 177.353 223.401 179.021 219.036 180.507
C 218.48 180.697 215.125 181.797 215.243 182.129
C 219.252 185.018 223.53 187.516 227.817 189.985
C 227.404 190.74 225.754 191.627 225.013 192.119
C 222.57 193.739 220.205 195.47 217.8 197.146
C 211.48 201.549 205.125 205.913 198.731 210.206
C 195.708 212.236 191.816 214.112 189.214 216.608
C 191.562 216.896 194.696 214.995 196.953 214.329
C 202.34 212.74 207.76 211.257 213.124 209.596
C 216.49 208.553 220.346 206.526 223.947 206.803
C 225.742 206.941 228.387 207.989 230.014 208.804
C 230.338 209.591 230.633 210.9 230.302 211.706
C 222.728 213.917 215.167 216.247 207.672 218.725
C 204.773 219.683 200.485 220.019 197.977 221.722
C 196.137 222.971 194.987 225.848 193.718 227.634
C 190.549 232.089 187.461 236.601 184.276 241.046
C 175.694 253.022 167.375 265.224 159.142 277.442
C 155.947 282.184 152.968 287.154 149.453 291.667 Z
M 264.416 225.629
C 264.331 225.774 264.247 225.919 264.162 226.064
C 266.119 226.125 268.198 224.979 270.022 224.373
C 273.616 223.179 277.175 221.875 280.766 220.664
C 282.574 220.054 284.575 219.02 286.474 218.836
C 286.24 220.112 284.641 221.247 283.864 222.28
C 281.542 225.371 278.622 228.341 276.697 231.691
C 277.394 232.186 278.746 231.057 279.39 230.752
C 282.108 229.465 284.782 228.078 287.436 226.656
C 294.825 222.699 302.279 218.902 309.745 215.094
C 311.771 214.06 313.793 213.026 315.8 211.956
C 317.02 211.305 318.147 210.359 319.534 210.141
C 326.954 215.36 335.482 218.874 342.854 224.163
C 348.08 227.912 352.144 233.2 356.855 237.532
C 356.867 237.828 356.028 237.343 355.876 237.273
C 354.788 236.771 353.72 236.254 352.653 235.705
C 350.118 234.401 347.482 233.309 344.902 232.101
C 338.862 229.272 333.032 226.371 327.199 223.12
C 325.33 222.079 323.463 221.029 321.626 219.932
C 320.823 219.453 320.036 218.708 319.11 218.56
C 314.261 219.946 309.44 223.221 305.017 225.615
C 297.577 229.642 289.97 233.352 282.539 237.397
C 279.573 239.011 276.574 240.581 273.55 242.085
C 272.229 242.743 270.369 243.278 269.46 244.457
C 272.161 245.646 276.082 245.192 279.002 245.473
C 285.236 246.074 291.463 246.812 297.709 247.341
C 314.508 248.766 331.345 250.213 348.1 252.078
C 355.171 252.865 362.468 252.977 369.447 254.419
C 379.37 256.471 389.186 259.042 399.124 261.054
C 401.64 261.563 404.162 262.031 406.668 262.585
C 407.649 262.802 409.251 263.443 410.237 263.151
C 413.404 260.249 416.617 257.389 419.883 254.597
C 421.932 252.845 424.668 251.099 426.28 248.928
C 425.745 247.983 424.253 247.337 423.356 246.748
C 421.101 245.268 418.92 243.694 416.639 242.251
C 409.603 237.801 402.709 233.041 395.803 228.389
C 392.96 226.474 388.711 224.578 386.513 221.944
C 385.137 220.294 384.996 216.704 384.605 214.634
C 383.805 210.398 382.87 206.191 382.184 201.931
C 381.854 199.878 381.946 197.12 381.184 195.209
C 380.559 193.642 379.11 192.27 378.063 190.977
C 376.008 188.439 373.905 185.943 371.878 183.383
C 368.819 179.519 366.019 175.41 362.43 172.002
C 356.627 166.493 349.35 162.287 342.696 157.895
C 339.652 155.886 336.669 152.848 333.439 151.258
C 331.686 154.68 329.765 157.859 327.727 161.119
C 327.06 162.186 326.526 163.875 325.383 164.48
C 324.784 163.45 325.576 161.301 325.608 160.089
C 325.712 156.046 325.8 152.007 326.088 147.982
C 326.704 139.396 326.657 130.76 327.415 122.184
C 327.983 115.754 328.534 109.084 328.411 102.625
C 326.978 103.468 326.095 106.155 325.237 107.552
C 322.58 111.875 320.081 116.303 317.553 120.703
C 312.932 128.746 308.039 136.645 303.497 144.732
C 301.432 148.409 298.757 152.072 297.25 156.016
C 295.899 159.552 295.454 163.427 294.831 167.138
C 294.384 169.805 293.315 172.807 293.426 175.516
C 297.3 174.362 298.438 169.757 299.918 166.526
C 302.057 161.857 304.681 157.247 307.187 152.764
C 308.433 150.535 309.475 147.816 311.288 146.003
C 312.046 146.995 311.015 149.77 310.9 150.98
C 310.633 153.803 310.666 156.689 310.245 159.493
C 309.979 161.267 309.231 162.882 308.944 164.627
C 308.958 165.008 310.249 163.898 310.467 163.721
C 311.464 162.912 312.366 161.99 313.545 161.438
C 315.191 160.667 317.361 160.664 319.134 160.84
C 319.943 160.92 321.049 161.252 321.816 160.98
C 321.499 161.822 320.505 162.289 319.877 162.904
C 317.907 164.833 315.759 166.535 313.593 168.238
C 306.868 173.525 300.344 179.054 293.542 184.252
C 291.41 185.881 289.243 187.473 287.132 189.13
C 286.567 189.573 285.546 190.801 284.761 190.665
C 285.102 182.086 286.508 173.562 288.074 165.122
C 288.756 161.443 289.033 157.013 290.451 153.551
C 291.498 150.995 293.279 148.66 294.595 146.23
C 298.41 139.181 302.587 132.342 306.507 125.351
C 308.163 122.398 310.414 119.461 311.481 116.238
C 309.857 116.806 308.498 118.726 307.276 119.889
C 305.168 121.893 302.826 123.627 300.66 125.568
C 296.144 129.614 291.655 133.702 287.061 137.659
C 284.127 140.186 280.374 142.473 277.938 145.488
C 276.733 146.978 276.189 148.96 275.385 150.674
C 274.231 153.136 271.442 156.715 271.752 159.473
C 272.073 162.336 273.615 165.446 274.522 168.183
C 276.604 174.461 278.537 180.806 280.777 187.03
C 281.677 189.529 282.618 191.999 283.451 194.524
C 283.701 195.284 284.591 196.486 284.364 197.299
C 284.051 198.423 282.936 199.524 282.245 200.434
C 280.982 202.097 279.779 203.789 278.572 205.491
C 273.82 212.187 269.105 218.892 264.416 225.629 Z
M 275.242 252.294
C 277.05 255.052 281.576 257.304 284.32 259.145
C 290.562 263.335 296.736 267.646 302.785 272.11
C 304.939 273.699 307.139 275.225 309.253 276.868
C 310.196 277.601 311.332 278.738 312.51 278.993
C 315.077 278.728 317.861 277.242 320.343 276.477
C 328.196 274.058 336.016 270.866 343.995 268.931
C 346.254 268.384 348.706 268.725 351.005 268.766
C 355.171 268.84 359.339 268.899 363.506 268.952
C 372.671 269.067 381.834 269.059 391.001 269.126
C 393.131 269.142 395.288 269.037 397.413 269.182
C 397.805 269.209 399.291 269.481 399.496 269.039
C 396.269 266.977 391.245 266.909 387.573 265.993
C 380.937 264.336 374.211 262.284 367.464 261.158
C 363.858 260.557 360.169 260.497 356.537 260.118
C 329.482 257.296 302.325 254.665 275.242 252.294 Z
M 291.942 292.567
C 291.098 295.153 292.182 297.84 292.553 300.417
C 294.081 299.706 295.597 297.22 296.696 295.942
C 298.761 293.54 300.61 290.957 302.688 288.567
C 303.949 287.116 305.479 285.642 306.387 283.939
C 304.91 282.611 303.174 281.634 301.621 280.404
C 300.938 279.864 300.339 279.037 299.429 279.272
C 296.666 283.424 294.135 288.09 291.942 292.567 Z
M 339.705 146.986
C 340.213 147.962 342.278 148.782 343.263 149.419
C 346.425 151.466 349.276 154.038 352.521 155.95
C 353.036 155.508 353.374 154.469 353.686 153.857
C 354.526 152.208 355.49 150.593 356.444 149.007
C 359.227 144.386 361.926 139.713 364.71 135.093
C 365.74 133.384 367.805 131.138 368.232 129.21
C 365.068 131.099 361.732 132.701 358.624 134.717
C 352.35 138.785 346.198 143.296 339.705 146.986 Z
M 359.398 158.996
C 359.11 159.607 359.259 159.255 358.977 160.066
C 361.867 162.582 365.014 165.011 368.008 167.418
C 368.767 166.373 369.089 164.256 369.464 162.989
C 370.292 160.201 371.145 157.393 372.067 154.635
C 374.682 146.816 377.19 138.917 379.492 131.002
C 380.428 127.786 382.281 124.11 382.541 120.777
C 381.462 121.294 380.806 122.691 380.151 123.636
C 378.449 126.092 377.09 128.767 375.524 131.31
C 371.915 137.169 368.384 143.061 364.936 149.016
C 363.034 152.302 361.437 155.796 359.398 158.996 Z"
opacity="1" fill="rgb(249,134,40)" fill-rule="evenodd" />
<path d="
M 136.452 477.118
C 136.625 475.995 136.59 474.849 136.742 473.719
C 137.202 473.64 138.281 473.351 138.697 473.771
C 139.207 474.286 138.826 477.265 138.829 477.986
C 138.847 481.321 138.825 484.657 138.762 487.992
C 138.738 489.254 138.428 491.248 139.107 492.343
C 139.843 492.791 141.493 493.547 141.019 494.596
C 138.956 495.5 137.011 494.158 136.645 492.101
C 135.817 487.445 136.113 481.824 136.452 477.118 Z"
opacity="1" fill="rgb(236,150,74)" fill-rule="evenodd" />
<path d="
M 142.463 488.582
C 144.296 484.973 148.406 485.75 151.725 485.336
C 151.742 484.761 151.454 484.113 151.305 483.552
C 151.179 483.078 151.013 482.662 150.689 482.287
C 148.061 479.24 145.495 483.81 142.823 483.673
C 142.64 479.61 148.373 478.291 151.321 479.753
C 155.034 481.594 153.875 487.235 153.936 490.57
C 153.956 491.66 154.438 493.641 153.731 494.534
C 152.194 494.781 152.094 494.548 151.591 493.158
C 150 493.67 148.61 494.745 146.912 494.906
C 143.337 495.246 141.436 491.678 142.463 488.582 Z
M 144.302 490.023
C 144.368 492.405 147.536 493.034 149.369 492.092
C 151.037 491.235 151.298 489.762 151.349 488.048
C 149.88 485.783 145.197 488.221 144.302 490.023 Z"
opacity="1" fill="rgb(234,148,77)" fill-rule="evenodd" />
<path d="
M 155.944 480.526
C 156.026 480.42 156.108 480.314 156.19 480.207
C 156.788 480.049 157.415 479.985 158.006 479.828
C 158.198 479.778 158.186 478.972 158.187 478.882
C 158.192 477.836 158.092 476.831 158.25 475.789
C 158.999 475.441 159.779 475.397 160.579 475.591
C 160.768 476.937 160.445 478.333 160.695 479.659
C 161.828 479.757 162.996 479.701 164.126 479.855
C 164.38 480.446 164.348 481.057 164.233 481.672
C 163.194 482.025 161.733 481.758 160.792 482.304
C 160.581 485.428 160.575 488.868 161.044 491.968
C 161.987 492.531 163.607 492.31 164.64 492.134
C 164.772 492.911 164.723 493.631 164.086 494.156
C 161.941 494.99 159.181 494.405 158.479 491.973
C 157.645 489.082 158.114 485.001 158.34 482.013
C 157.959 481.583 156.855 481.718 156.273 481.624
C 155.99 481.025 156.124 481.383 155.944 480.526 Z"
opacity="1" fill="rgb(229,140,65)" fill-rule="evenodd" />
<path d="
M 164.954 410.118
C 165.726 401.157 170.299 392.461 177.484 386.996
C 190.627 376.998 211.207 378.873 222.091 391.29
C 224.744 394.317 226.812 397.712 228.184 401.499
C 229.895 406.22 230.461 411.463 230.046 416.458
C 229.456 423.579 226.223 430.962 221.128 436.018
C 208.017 449.029 184.213 448.465 172.296 434.137
C 169.805 431.142 167.868 427.66 166.651 423.957
C 165.186 419.502 164.55 414.806 164.954 410.118 Z
M 177.968 409.596
C 176.655 418.487 180.808 428.149 189.166 432.041
C 200.99 437.546 215.339 429.984 217.093 416.947
C 217.986 410.303 216.31 402.454 211.293 397.658
C 203.756 390.453 190.476 390.219 183.283 398.101
C 180.436 401.221 178.581 405.44 177.968 409.596 Z"
opacity="1" fill="rgb(247,131,38)" fill-rule="evenodd" />
<path d="
M 166.362 484.041
C 168.019 479.552 173.509 477.411 177.017 481.431
C 178.591 483.235 178.869 485.553 178.785 487.836
C 175.532 487.545 172.01 487.649 168.76 487.928
C 168.693 488.525 168.612 489.181 168.819 489.767
C 168.999 490.279 169.329 490.733 169.722 491.105
C 172.708 493.934 175.067 489.835 177.957 490.454
C 178.213 493.982 173.348 495.236 170.659 494.3
C 166.502 492.852 165.386 487.831 166.362 484.041 Z
M 168.902 484.031
C 168.767 484.627 168.579 484.966 168.985 485.458
C 170.883 486.027 172.997 485.682 174.948 485.673
C 175.339 485.671 176.266 485.912 176.488 485.497
C 176.507 481.134 170.635 480.424 168.902 484.031 Z"
opacity="1" fill="rgb(237,143,73)" fill-rule="evenodd" />
<path d="
M 180.513 491.146
C 180.555 490.538 180.535 490.907 180.553 490.037
C 182.826 489.62 184.371 492.658 186.827 492.577
C 187.744 492.546 189.229 492.035 189.403 491.021
C 189.109 486.656 181.824 489.175 180.927 484.479
C 180.811 483.873 180.762 483.168 180.981 482.578
C 182.066 479.659 186.2 478.907 188.819 479.932
C 190.11 480.437 192.098 481.924 191.29 483.49
C 190.597 483.715 189.929 483.681 189.259 483.409
C 188.642 482.732 188.016 481.911 187.081 481.699
C 185.399 481.318 182.68 482.185 183.485 484.376
C 183.981 485.725 185.814 485.816 186.988 485.976
C 189.487 486.315 192.536 487.812 191.867 490.826
C 190.826 495.525 181.303 496.218 180.513 491.146 Z"
opacity="0.996" fill="rgb(239,146,70)" fill-rule="evenodd" />
<path d="
M 202.317 484.513
C 204.148 479.353 210.793 482.372 209.257 487.345
C 208.005 491.399 200.821 488.729 202.317 484.513 Z"
opacity="1" fill="rgb(244,125,39)" fill-rule="evenodd" />
<path d="
M 221.369 475.065
C 221.384 474.873 221.399 474.681 221.414 474.489
C 222.077 474.357 223.197 474.119 223.812 474.52
C 224.05 477.343 223.915 480.355 223.787 483.187
C 227.108 482.94 230.467 483.322 233.785 483.054
C 234.304 482.353 234.063 481.143 234.036 480.303
C 233.976 478.457 233.926 476.682 234.077 474.838
C 234.934 474.623 235.662 474.488 236.478 474.881
C 236.705 481.28 235.747 487.925 236.622 494.292
C 236.015 493.877 234.942 494.486 234.284 494.127
C 234.461 491.164 234.157 488.165 234.173 485.2
C 230.692 485.309 227.149 485.005 223.684 485.297
C 223.686 487.362 223.621 489.43 223.607 491.496
C 223.602 492.291 223.795 493.467 223.389 494.169
C 222.748 494.174 222.109 494.214 221.477 494.319
C 220.66 493.306 221.197 490.781 221.2 489.498
C 221.214 484.733 220.958 479.811 221.369 475.065 Z"
opacity="1" fill="rgb(244,153,73)" fill-rule="evenodd" />
<path d="
M 240.298 474.377
C 241.067 473.812 241.591 473.673 242.534 473.709
C 243.392 474.507 243.985 475.974 242.87 476.856
C 242.067 476.976 241.584 477.116 240.778 476.864
C 240.402 476.02 240.302 475.301 240.298 474.377 Z"
opacity="1" fill="rgb(245,156,67)" fill-rule="evenodd" />
<path d="
M 240.735 479.796
C 241.569 479.802 242.223 479.784 242.997 480.089
C 243.319 484.633 243.462 489.626 243.058 494.159
C 242.252 494.245 241.432 494.177 240.624 494.258
C 240.549 489.544 240.31 484.486 240.735 479.796 Z"
opacity="0.996" fill="rgb(249,150,73)" fill-rule="evenodd" />
<path d="
M 246.41 483.556
C 247.739 480.853 250.236 478.687 253.439 479.54
C 254.725 479.882 255.63 480.974 256.854 481.378
C 257.346 480.818 257.614 480.183 257.86 479.488
C 259.797 479.797 259.147 483.752 259.213 485.426
C 259.366 489.311 260.302 495.302 257.21 498.264
C 254.468 500.891 246.97 500.532 247.079 495.709
C 250.597 496.256 254.336 499.787 256.56 494.932
C 256.938 493.802 257.245 492.868 257.029 491.679
C 255.586 492.693 254.428 493.873 252.554 493.971
C 247.234 494.248 244.947 487.842 246.41 483.556 Z
M 248.477 484.571
C 247.661 486.942 248.564 489.786 250.668 491.149
C 252.611 492.408 255.841 490.852 256.616 488.823
C 257.164 487.389 257.115 484.654 256.046 483.462
C 253.709 480.854 249.696 481.031 248.477 484.571 Z"
opacity="0.996" fill="rgb(241,144,69)" fill-rule="evenodd" />
<path d="
M 248.999 381.987
C 251.652 381.675 254.426 381.875 257.095 381.875
C 258.287 381.875 259.761 381.611 260.893 381.987
C 262.627 385.928 266.463 389.795 269.099 393.22
C 274.229 399.886 278.962 406.864 283.974 413.619
C 285.726 415.979 287.551 418.361 289.115 420.849
C 289.365 421.245 290.43 423.502 290.888 423.466
C 291.118 420.559 290.751 417.435 290.75 414.503
C 290.745 407.504 290.75 400.504 290.761 393.505
C 290.765 390.838 290.768 388.17 290.764 385.503
C 290.763 384.481 290.495 382.969 290.883 382.04
C 294.851 381.574 299.294 381.964 303.29 382.123
C 302.879 385.298 303.246 388.792 303.245 392.004
C 303.244 398.503 303.242 405.003 303.244 411.503
C 303.245 418.67 303.261 425.836 303.263 433.003
C 303.265 436.666 302.915 440.548 303.343 444.187
C 299.46 443.905 295.571 444.121 291.685 444.122
C 290.639 443.288 289.986 441.833 289.212 440.748
C 287.647 438.554 286.044 436.386 284.49 434.182
C 279.2 426.684 273.637 419.374 268.23 411.96
C 266.462 409.534 264.66 407.135 262.897 404.706
C 262.525 404.194 262.091 403.712 261.752 403.177
C 261.55 402.858 261.508 402.046 261.168 402.209
C 261.075 402.253 261.137 404.334 261.154 404.711
C 261.258 407.139 261.192 409.572 261.199 412.003
C 261.223 419.503 261.099 427.003 261.114 434.504
C 261.12 437.36 260.402 441.399 261.218 444.125
C 260.058 443.696 258.365 443.926 257.135 443.916
C 254.328 443.893 251.485 443.876 248.691 444.128
C 248.884 423.469 248.419 402.796 248.636 382.137
C 248.757 382.087 248.878 382.037 248.999 381.987 Z"
opacity="1" fill="rgb(247,132,39)" fill-rule="evenodd" />
<path d="
M 262.957 475.135
C 262.954 474.435 262.949 474.824 262.982 473.968
C 263.786 473.9 264.47 473.938 265.263 474.088
C 265.572 476.213 264.565 479.476 265.4 481.382
C 266.507 480.76 267.415 479.875 268.688 479.58
C 271.563 478.913 273.916 480.428 274.607 483.295
C 275.433 486.722 274.912 490.924 274.894 494.435
C 274.058 494.513 273.247 494.373 272.413 494.411
C 271.534 491.03 273.73 486.41 272.202 483.202
C 270.985 480.647 266.601 481.759 265.56 483.907
C 265.134 484.787 265.294 486.185 265.284 487.137
C 265.261 489.49 265.415 491.885 265.248 494.231
C 264.517 494.32 263.781 494.158 263.047 494.217
C 262.446 492.233 262.89 489.568 262.894 487.496
C 262.903 483.423 262.608 479.189 262.957 475.135 Z"
opacity="1" fill="rgb(241,143,61)" fill-rule="evenodd" />
<path d="
M 277.944 485.505
C 280.2 485.236 282.758 485.024 284.979 485.603
C 285.505 486.161 285.647 486.669 285.644 487.427
C 285.136 487.932 284.077 487.757 283.395 487.781
C 281.548 487.845 279.731 487.776 277.888 487.719
C 277.672 486.89 277.603 486.311 277.944 485.505 Z"
opacity="1" fill="rgb(237,152,80)" fill-rule="evenodd" />
<path d="
M 288.792 474.869
C 291.462 474.662 294.2 474.664 296.875 474.814
C 298.261 474.892 299.862 474.963 300.987 475.877
C 302.199 476.863 302.713 478.69 302.94 480.172
C 303.085 481.117 303.078 482.119 302.848 483.047
C 301.65 486.452 298.618 487.051 295.369 487.157
C 294.331 487.191 291.74 486.613 291.2 487.369
C 291.088 489.683 290.969 492.326 291.286 494.621
C 290.505 494.465 289.685 494.391 288.891 494.347
C 288.496 492.61 288.807 490.532 288.771 488.75
C 288.679 484.135 288.972 479.47 288.792 474.869 Z
M 291.31 476.867
C 290.976 478.699 291.194 480.695 291.214 482.553
C 291.221 483.302 291.03 484.287 291.477 484.901
C 293.994 484.82 297.045 485.301 299.187 483.658
C 301.1 482.192 300.725 478.411 298.569 477.298
C 296.525 476.243 293.527 477.041 291.31 476.867 Z"
opacity="1" fill="rgb(245,152,64)" fill-rule="evenodd" />
<path d="
M 304.903 483.562
C 306.136 479.894 311.011 477.823 314.297 480.344
C 316.772 482.243 317.544 484.781 317.654 487.778
C 314.289 487.758 309.984 486.866 306.746 487.857
C 306.806 488.533 306.84 489.25 307.098 489.888
C 309.094 494.822 313.725 490.376 316.816 490.179
C 315.709 495.148 309.891 495.672 306.585 492.556
C 304.253 490.357 304.316 486.453 304.903 483.562 Z
M 306.866 485.086
C 306.845 485.276 306.824 485.466 306.803 485.655
C 309.014 485.614 311.27 485.726 313.5 485.695
C 313.962 485.689 315.271 485.979 315.471 485.498
C 314.739 482.088 311.201 480.213 308.356 482.53
C 307.473 483.25 307.264 484.08 306.866 485.086 Z"
opacity="1" fill="rgb(244,150,77)" fill-rule="evenodd" />
<path d="
M 319.953 492.631
C 320.797 488.456 319.723 484.089 320.34 479.882
C 320.882 479.443 321.273 479.431 321.948 479.492
C 322.062 480.092 322.225 480.681 322.317 481.284
C 323.382 481.66 323.989 479.928 324.939 479.643
C 326.571 479.153 328.675 480.213 330.333 480.295
C 330.492 476.413 332.314 472.018 337.038 473.856
C 337.503 474.487 337.482 475.262 337.421 476.02
C 336.36 476.915 334.185 475.635 333.066 476.518
C 332.911 477.354 332.511 478.921 333.186 479.554
C 334.424 479.795 335.728 479.897 336.991 479.865
C 336.994 480.487 336.934 481.045 336.526 481.532
C 335.708 482.067 334.28 482.142 333.315 482.264
C 332.685 483.378 332.865 484.754 332.885 485.992
C 332.93 488.636 333.328 491.673 332.846 494.275
C 332.209 494.192 331.472 494.404 330.906 494.095
C 330.424 490.372 330.426 485.898 330.702 482.158
C 329.795 481.817 328.731 481.832 327.769 481.799
C 327.04 481.774 326.151 481.666 325.434 481.837
C 320.336 483.052 322.214 490.696 322.193 494.319
C 321.487 494.321 320.759 494.226 320.069 494.091
C 320.005 493.595 319.938 493.13 319.953 492.631 Z"
opacity="1" fill="rgb(243,143,67)" fill-rule="evenodd" />
<path d="
M 337.383 485.576
C 338.093 481.32 342.721 477.915 346.9 479.921
C 350.024 481.421 351.625 485.562 350.966 488.87
C 350.783 489.788 350.354 490.662 349.858 491.447
C 345.493 498.365 336.189 492.733 337.383 485.576 Z
M 339.879 485.569
C 339.328 487.833 340.177 490.531 342.179 491.824
C 344.948 493.611 347.879 491.237 348.508 488.53
C 349 486.411 348.421 483.676 346.605 482.305
C 343.883 480.251 340.564 482.756 339.879 485.569 Z"
opacity="0.996" fill="rgb(240,145,69)" fill-rule="evenodd" />
<path d="
M 340.434 194.696
C 345.718 197.457 351.305 199.871 356.697 202.452
C 359.011 203.56 362.254 204.455 364.146 206.217
C 365.979 207.927 366.801 210.856 368.065 212.985
C 369.041 214.629 371.049 216.462 371.447 218.356
C 369.13 217.521 367.063 216.058 364.797 215.085
C 362.098 213.927 359.192 213.115 356.393 212.23
C 354.953 211.774 353.448 211.314 351.971 210.997
C 351.127 210.815 350.146 210.857 349.456 210.267
C 348.131 209.132 347.448 206.919 346.583 205.433
C 344.586 202.003 341.606 198.457 340.434 194.696 Z"
opacity="1" fill="rgb(250,133,41)" fill-rule="evenodd" />
<path d="
M 353.938 479.501
C 355.249 479.557 355.88 479.886 356.004 481.231
C 356.257 481.566 356.799 481.122 357.071 480.932
C 358.219 480.127 359 479.393 360.476 479.358
C 360.62 480.099 360.974 481 360.724 481.751
C 359.199 481.907 357.425 482.622 356.242 483.576
C 355.432 487.014 355.889 490.65 355.817 494.152
C 355.089 494.213 354.361 494.144 353.634 494.208
C 353.563 490.976 353.697 487.742 353.61 484.507
C 353.569 483 353.281 480.884 353.938 479.501 Z"
opacity="0.996" fill="rgb(232,141,69)" fill-rule="evenodd" />
<path d="
M 357.839 381.961
C 364.46 381.299 371.357 381.817 378.008 381.839
C 386.508 381.867 395.104 381.496 403.592 381.869
C 403.33 385.615 403.45 389.636 403.74 393.39
C 392.63 392.727 381.339 393.198 370.214 393.273
C 369.737 398.136 370.226 403.322 370.284 408.214
C 371.055 408.519 372.176 408.276 373.007 408.274
C 374.841 408.272 376.675 408.292 378.509 408.297
C 383.342 408.312 388.176 408.285 393.008 408.369
C 395.463 408.412 398.144 408.242 400.56 408.7
C 400.568 412.269 400.675 415.85 400.64 419.422
C 398.158 419.882 395.056 419.395 392.51 419.397
C 385.133 419.404 377.516 418.897 370.181 419.688
C 370.518 427.78 370.587 436.071 370.346 444.165
C 366.099 444.134 361.945 443.763 357.693 444.211
C 358.243 438.731 357.774 433.011 357.791 427.505
C 357.823 417.006 357.866 406.508 357.875 396.009
C 357.879 391.414 357.341 386.521 357.839 381.961 Z"
opacity="1" fill="rgb(248,131,37)" fill-rule="evenodd" />
<path d="
M 363.413 480.582
C 363.606 479.993 363.507 480.325 363.699 479.583
C 364.794 479.052 365.563 480.105 366.158 480.897
C 367.024 480.632 367.556 480.021 368.392 479.702
C 370.89 478.748 372.365 479.857 374.05 481.588
C 375.932 481.337 376.789 479.267 378.998 479.275
C 381.4 479.285 382.995 481.347 383.536 483.473
C 384.436 487.01 383.314 490.752 383.774 494.316
C 382.988 494.304 382.206 494.289 381.421 494.339
C 381.008 493.715 381.275 491.98 381.267 491.196
C 381.245 488.761 381.955 485.055 380.807 482.814
C 379.598 480.453 375.914 481.504 374.871 483.521
C 374.472 484.293 374.764 485.65 374.784 486.497
C 374.843 489.016 375.128 491.796 374.797 494.291
C 374.053 494.153 373.173 494.248 372.419 494.324
C 372.093 491.712 372.425 488.907 372.435 486.274
C 372.438 485.352 372.684 484.022 372.317 483.151
C 371.226 480.564 367.227 481.312 366.06 483.414
C 365.567 484.301 365.804 485.734 365.808 486.712
C 365.82 489.196 365.798 491.68 365.817 494.164
C 365.26 494.198 363.761 494.439 363.356 494.106
C 363.529 489.693 362.757 484.942 363.413 480.582 Z"
opacity="0.996" fill="rgb(237,143,65)" fill-rule="evenodd" />
<path d="
M 386.302 489.008
C 388.228 485.044 392.124 485.378 395.829 485.75
C 395.96 483.253 394.367 481.053 391.712 481.526
C 390.571 481.729 389.51 482.312 388.516 482.876
C 388.315 482.99 386.828 484.041 386.925 483.61
C 387.998 479.251 394.794 477.266 397.212 481.732
C 398.984 485.006 398.195 490.754 398.229 494.374
C 397.576 494.352 396.923 494.336 396.268 494.313
C 394.981 492.114 393.885 494.345 391.946 494.66
C 388.504 495.221 385.739 492.341 386.302 489.008 Z
M 388.466 490.098
C 389.324 493.421 393.591 492.27 395.346 490.598
C 395.819 489.728 395.797 488.503 395.702 487.536
C 393.073 487.055 390.194 487.329 388.517 489.611
C 388.5 489.773 388.483 489.936 388.466 490.098 Z"
opacity="1" fill="rgb(239,147,72)" fill-rule="evenodd" />
<path d="
M 401.503 493.643
C 402.161 488.984 401.054 484.087 401.879 479.461
C 403.182 479.432 403.612 479.977 403.982 481.214
C 404.548 481.5 405.327 480.634 405.771 480.333
C 406.751 479.671 407.791 479.243 408.998 479.39
C 415.853 480.228 413.258 489.926 413.234 494.387
C 412.639 494.399 412.103 494.235 411.5 494.287
C 410.925 493.568 411.214 491.978 411.217 491.078
C 411.227 487.656 412.33 482.995 408.529 481.359
C 402.02 481.723 404.204 489.861 403.991 494.164
C 403.268 494.353 402.445 494.289 401.702 494.402
C 401.421 493.982 401.509 494.228 401.503 493.643 Z"
opacity="1" fill="rgb(241,145,65)" fill-rule="evenodd" />
<path d="
M 415.971 485.61
C 416.61 482.848 417.742 479.943 420.982 479.465
C 423.207 479.136 428.295 480.679 427.329 483.81
C 426.44 484.007 425.792 483.158 425.138 482.711
C 423.867 481.842 422.165 481.313 420.651 481.814
C 416.523 483.178 417.488 490.776 421.171 492.082
C 424.09 493.118 425.178 489.712 427.596 489.842
C 428.258 493.83 423.351 495.469 420.272 494.361
C 416.605 493.042 415.464 489.125 415.971 485.61 Z"
opacity="1" fill="rgb(238,151,73)" fill-rule="evenodd" />
<path d="
M 417.475 407.609
C 418.184 403.17 419.791 398.755 422.158 394.926
C 432.68 377.911 457.374 376.316 471.898 388.807
C 476.653 392.896 479.828 399.015 481.282 405.041
C 482.294 409.236 482.592 413.666 481.922 417.944
C 481.045 423.538 478.855 429.004 475.314 433.464
C 462.303 449.854 435.443 448.99 423.174 432.309
C 420.731 428.987 419.002 425.065 418.055 421.06
C 417.029 416.723 416.771 412.023 417.475 407.609 Z
M 429.949 411.108
C 429.701 414.699 430.166 418.49 431.641 421.8
C 432.997 424.847 434.987 427.558 437.573 429.677
C 449.98 439.844 468.383 430.164 469.374 414.915
C 469.754 409.067 468.067 402.743 464.078 398.328
C 456.924 390.409 443.825 390.127 436.096 397.28
C 432.332 400.764 430.297 406.073 429.949 411.108 Z"
opacity="1" fill="rgb(247,130,37)" fill-rule="evenodd" />
<path d="
M 429.431 485.601
C 430.698 480.725 436.802 476.362 440.793 481.708
C 442.228 483.631 442.31 485.928 442.377 488.224
C 439.863 488.057 437.385 487.843 434.832 487.797
C 433.752 487.778 432.678 487.569 431.739 488.162
C 431.918 488.982 432.117 489.705 432.56 490.434
C 435.229 494.828 438.414 490.405 441.823 490.481
C 442.801 491.948 438.972 494.006 437.953 494.263
C 432.677 495.596 428.651 490.772 429.431 485.601 Z
M 431.986 484.078
C 431.877 484.578 431.802 484.868 432.072 485.313
C 434.615 486.422 437.307 485.085 439.754 485.861
C 439.483 481.416 434.037 479.586 431.986 484.078 Z"
opacity="1" fill="rgb(237,149,74)" fill-rule="evenodd" />
<path d="
M 451.39 474.805
C 454.604 474.565 459.369 473.763 462.36 475.277
C 465.045 476.636 466.429 480.957 465.023 483.684
C 464.343 485.004 462.82 485.815 461.56 486.473
C 462.933 488.752 465.357 491.397 466.039 493.969
C 465.039 494.716 463.86 494.025 463.18 493.248
C 461.451 491.274 460.365 488.827 458.906 486.667
C 457.189 486.649 455.331 486.413 453.672 486.889
C 453.632 488.839 454.356 492.318 453.439 494.056
C 452.796 494.088 452.184 494.028 451.551 493.912
C 450.705 487.698 451.515 481.072 451.39 474.805 Z
M 453.746 476.715
C 453.505 478.628 452.907 482.783 453.938 484.463
C 456.803 484.279 460.459 485.03 462.649 482.771
C 462.907 482.039 462.977 481.322 462.964 480.549
C 462.874 475.448 457.303 476.82 453.746 476.715 Z"
opacity="1" fill="rgb(244,151,68)" fill-rule="evenodd" />
<path d="
M 467.476 486.607
C 468.103 483.509 469.302 480.533 472.603 479.488
C 476.94 478.116 481.445 483.051 480.322 487.295
C 476.854 488.16 473.174 487.189 469.687 487.855
C 469.877 488.641 470.116 489.357 470.475 490.083
C 472.786 494.753 476.768 490.747 479.757 490.003
C 481.033 491.042 477.526 493.622 476.729 493.968
C 471.59 496.201 467.315 491.559 467.476 486.607 Z
M 469.898 484.543
C 469.711 485.205 469.795 484.853 469.655 485.601
C 471.562 485.6 473.494 485.803 475.416 485.743
C 475.973 485.726 477.382 485.848 477.748 485.373
C 477.882 483.024 475.49 480.792 473.136 481.394
C 471.344 481.853 470.6 482.949 469.898 484.543 Z"
opacity="1" fill="rgb(244,149,76)" fill-rule="evenodd" />
<path d="
M 482.012 487.122
C 483.037 483.5 483.651 479.409 488.489 479.382
C 490.246 479.372 495.921 481.743 493.801 484.245
C 491.427 484.36 490.694 480.696 487.947 481.423
C 483.602 482.572 482.604 489.922 486.736 491.979
C 489.764 493.486 491.363 488.965 493.822 490.158
C 494.006 493.2 490.481 494.608 487.905 494.384
C 484.436 494.082 481.614 490.551 482.012 487.122 Z"
opacity="1" fill="rgb(240,145,67)" fill-rule="evenodd" />
<path d="
M 493.781 443.55
C 498.989 435.925 504.523 428.461 509.951 420.99
C 512.039 418.117 514.899 415.072 516.527 411.959
C 515.236 409.184 512.737 406.471 510.995 403.922
C 505.95 396.539 500.265 389.346 495.624 381.73
C 500.533 382.037 505.656 381.876 510.577 381.748
C 512.534 383.497 513.809 386.654 515.344 388.811
C 518.339 393.018 521.805 397.36 524.094 402.002
C 524.561 402.038 524.848 401.253 525.09 400.905
C 525.884 399.763 526.669 398.611 527.479 397.479
C 531.128 392.38 534.372 386.968 538.063 381.917
C 542.556 381.008 547.983 381.797 552.558 381.875
C 551.146 384.907 548.499 387.873 546.541 390.607
C 543.405 394.986 540.472 399.524 537.36 403.926
C 535.607 406.404 533.554 408.834 532.015 411.437
C 533.289 413.827 535.227 415.961 536.769 418.195
C 541.008 424.337 545.361 430.396 549.608 436.531
C 550.996 438.536 552.466 440.481 553.809 442.515
C 553.957 442.739 555 444.002 554.887 444.091
C 550.011 444.3 544.68 444.31 539.779 444.136
C 538.327 442.31 537.195 440.142 535.877 438.209
C 532.062 432.614 528.103 427.107 524.393 421.446
C 518.797 428.597 514.201 436.634 508.865 443.996
C 507.79 444.479 505.692 444.058 504.504 444.057
C 500.866 444.053 497.226 444.165 493.592 444.145
C 493.655 443.947 493.718 443.749 493.781 443.55 Z"
opacity="1" fill="rgb(248,132,39)" fill-rule="evenodd" />
<path d="
M 495.937 484.587
C 496.945 479.771 502.827 477.759 506.704 480.76
C 509.104 482.618 509.775 486.166 509.233 489.034
C 508.151 494.756 500.874 496.479 497.118 492.21
C 495.42 490.28 495.443 486.951 495.937 484.587 Z
M 497.974 486.601
C 497.863 488.662 498.609 490.965 500.574 491.947
C 503.848 493.584 506.746 490.769 506.925 487.588
C 507.007 486.135 506.883 484.623 506.068 483.375
C 503.228 479.026 498.201 482.4 497.974 486.601 Z"
opacity="1" fill="rgb(242,152,67)" fill-rule="evenodd" />
<path d="
M 510.244 479.914
C 510.907 479.53 511.45 479.323 512.22 479.448
C 513.629 482.215 514.672 485.202 515.661 488.166
C 515.875 488.808 516.167 490.944 516.876 491.01
C 517.452 487.724 519.088 484.122 520.428 481.074
C 520.913 479.969 522.009 478.592 523.376 479.428
C 523.165 481.22 522.089 482.876 521.438 484.541
C 520.591 486.707 519.917 488.944 519.027 491.093
C 518.467 492.442 518.057 494.508 516.239 494.085
C 514.871 492.976 514.374 490.685 513.781 489.087
C 512.643 486.022 510.978 483.112 510.244 479.914 Z"
opacity="0.996" fill="rgb(244,158,77)" fill-rule="evenodd" />
<path d="
M 524.465 484.069
C 526.603 479.706 532.258 477.465 535.622 482.031
C 536.854 483.703 536.963 485.848 536.876 487.843
C 534.773 487.629 532.617 487.903 530.504 487.821
C 529.091 487.766 527.479 487.491 526.163 488.044
C 526.841 491.032 529.505 493.524 532.705 491.923
C 533.669 491.441 535.355 489.651 536.45 490.444
C 535.981 493.754 531.121 495.563 528.198 494.228
C 524.614 492.592 523.478 487.536 524.465 484.069 Z
M 526.459 484.058
C 526.229 484.56 526.143 484.919 526.099 485.471
C 528.79 486.294 531.529 485.384 534.218 485.765
C 534.487 480.973 528.561 480.371 526.459 484.058 Z"
opacity="1" fill="rgb(244,158,88)" fill-rule="evenodd" />
<path d="
M 548.873 479.809
C 548.731 480.449 548.725 480.896 548.816 481.541
C 548.099 479.76 543.056 483.042 541.891 483.929
C 541.028 487.014 541.827 490.713 541.625 493.898
C 541.127 494.029 539.818 494.149 539.518 493.687
C 538.991 492.874 539.39 491.009 539.382 490.077
C 539.35 486.699 538.987 483.082 539.943 479.796
C 540.28 479.743 541.07 479.514 541.366 479.85
C 541.701 480.231 541.551 481.324 542.177 481.405
C 542.902 481.499 543.817 479.979 544.526 479.786
C 545.837 479.429 547.515 479.897 548.873 479.809 Z"
opacity="0.996" fill="rgb(239,139,60)" fill-rule="evenodd" />
<path d="
M 548.873 479.809
C 550.49 479.911 550.963 481.63 551.459 482.976
C 552.237 485.089 553.203 487.135 554.034 489.225
C 554.256 489.783 554.503 491.144 554.888 491.519
C 556.664 487.95 557.278 483.8 559.021 480.189
C 559.686 479.772 560.597 479.531 561.314 479.979
C 560.179 483.191 558.661 486.307 557.432 489.492
C 556.553 491.768 555.916 494.292 554.821 496.464
C 553.988 498.118 551.897 500.282 549.819 499.571
C 549.235 499.06 549.015 498.655 548.804 497.917
C 550.123 497.298 551.842 497.527 552.77 496.21
C 553.805 494.74 553.116 492.889 552.529 491.395
C 551.28 488.215 549.465 484.905 548.816 481.541
C 548.725 480.896 548.731 480.449 548.873 479.809 Z"
opacity="0.996" fill="rgb(249,153,63)" fill-rule="evenodd" />

</svg>